<mxfile host="app.diagrams.net" agent="Mozilla/5.0 (Windows NT 10.0; Win64; x64) AppleWebKit/537.36 (KHTML, like Gecko) Chrome/128.0.0.0 Safari/537.36" version="24.7.12">
  <diagram name="Страница — 1" id="L1tO_FG33vANM4wXe-gJ">
    <mxGraphModel dx="906" dy="2087" grid="1" gridSize="10" guides="1" tooltips="1" connect="1" arrows="1" fold="1" page="1" pageScale="1" pageWidth="827" pageHeight="1169" math="0" shadow="0">
      <root>
        <mxCell id="0" />
        <mxCell id="1" parent="0" />
        <mxCell id="LR5BryFxUAawPIUA4l_Y-1" value="" style="rounded=0;whiteSpace=wrap;html=1;fillColor=#dae8fc;strokeColor=#6c8ebf;" parent="1" vertex="1">
          <mxGeometry x="960" y="-200" width="2920" height="1370" as="geometry" />
        </mxCell>
        <mxCell id="LR5BryFxUAawPIUA4l_Y-2" value="" style="group" parent="1" vertex="1" connectable="0">
          <mxGeometry x="1307" y="78" width="151" height="36" as="geometry" />
        </mxCell>
        <mxCell id="LR5BryFxUAawPIUA4l_Y-3" value="&lt;p style=&quot;margin: 0px 0px 0px 13px; text-indent: -13px; font-variant-numeric: normal; font-variant-east-asian: normal; font-variant-alternates: normal; font-kerning: auto; font-optical-sizing: auto; font-feature-settings: normal; font-variation-settings: normal; font-variant-position: normal; font-stretch: normal; font-size: 14px; line-height: normal; color: rgb(14, 14, 14); text-align: start;&quot; class=&quot;p1&quot;&gt;&lt;br&gt;&lt;/p&gt;" style="rounded=1;whiteSpace=wrap;html=1;fillColor=#FF77BF;strokeColor=none;arcSize=33;" parent="LR5BryFxUAawPIUA4l_Y-2" vertex="1">
          <mxGeometry y="5" width="151" height="31" as="geometry" />
        </mxCell>
        <mxCell id="LR5BryFxUAawPIUA4l_Y-4" value="&lt;font style=&quot;font-size: 18px;&quot;&gt;&lt;i&gt;Django/Python&lt;/i&gt;&lt;/font&gt;" style="text;html=1;align=center;verticalAlign=middle;whiteSpace=wrap;rounded=1;shadow=0;fontSize=23;fontStyle=1" parent="LR5BryFxUAawPIUA4l_Y-2" vertex="1">
          <mxGeometry x="30" width="89" height="36" as="geometry" />
        </mxCell>
        <mxCell id="LR5BryFxUAawPIUA4l_Y-5" value="" style="group" parent="1" vertex="1" connectable="0">
          <mxGeometry x="1691" y="-203" width="155" height="49" as="geometry" />
        </mxCell>
        <mxCell id="LR5BryFxUAawPIUA4l_Y-6" value="&lt;p style=&quot;margin: 0px 0px 0px 13px; text-indent: -13px; font-variant-numeric: normal; font-variant-east-asian: normal; font-variant-alternates: normal; font-kerning: auto; font-optical-sizing: auto; font-feature-settings: normal; font-variation-settings: normal; font-variant-position: normal; font-stretch: normal; font-size: 14px; line-height: normal; color: rgb(14, 14, 14); text-align: start;&quot; class=&quot;p1&quot;&gt;&lt;br&gt;&lt;/p&gt;" style="rounded=1;whiteSpace=wrap;html=1;fillColor=#FF77BF;strokeColor=none;arcSize=33;" parent="LR5BryFxUAawPIUA4l_Y-5" vertex="1">
          <mxGeometry y="13" width="155" height="34" as="geometry" />
        </mxCell>
        <mxCell id="LR5BryFxUAawPIUA4l_Y-7" value="&lt;font style=&quot;font-size: 18px;&quot;&gt;&lt;i&gt;React/HTML/CSS&lt;/i&gt;&lt;/font&gt;" style="text;html=1;align=center;verticalAlign=middle;whiteSpace=wrap;rounded=1;shadow=0;fontSize=23;fontStyle=1" parent="LR5BryFxUAawPIUA4l_Y-5" vertex="1">
          <mxGeometry x="29" width="89" height="49" as="geometry" />
        </mxCell>
        <mxCell id="LR5BryFxUAawPIUA4l_Y-8" value="" style="rounded=0;whiteSpace=wrap;html=1;fillColor=#e1d5e7;strokeColor=#9673a6;movable=1;resizable=1;rotatable=1;deletable=1;editable=1;locked=0;connectable=1;" parent="1" vertex="1">
          <mxGeometry x="960" y="-600" width="2920" height="400" as="geometry" />
        </mxCell>
        <mxCell id="LR5BryFxUAawPIUA4l_Y-9" value="" style="group" parent="1" vertex="1" connectable="0">
          <mxGeometry x="2720" y="-584" width="632" height="372.0000000000001" as="geometry" />
        </mxCell>
        <mxCell id="LR5BryFxUAawPIUA4l_Y-10" value="" style="rounded=1;whiteSpace=wrap;html=1;arcSize=5;fillColor=#fff2cc;strokeColor=#d6b656;" parent="LR5BryFxUAawPIUA4l_Y-9" vertex="1">
          <mxGeometry x="17" width="518" height="220" as="geometry" />
        </mxCell>
        <mxCell id="LR5BryFxUAawPIUA4l_Y-11" value="TurboPay" style="text;html=1;align=center;verticalAlign=middle;whiteSpace=wrap;rounded=1;shadow=0;fontSize=23;fontStyle=1" parent="LR5BryFxUAawPIUA4l_Y-9" vertex="1">
          <mxGeometry width="177" height="49" as="geometry" />
        </mxCell>
        <mxCell id="LR5BryFxUAawPIUA4l_Y-12" value="" style="group" parent="LR5BryFxUAawPIUA4l_Y-9" vertex="1" connectable="0">
          <mxGeometry x="70" y="70" width="562" height="302.0000000000001" as="geometry" />
        </mxCell>
        <mxCell id="LR5BryFxUAawPIUA4l_Y-13" value="" style="rounded=1;whiteSpace=wrap;html=1;arcSize=5;fillColor=#fff2cc;strokeColor=#d6b656;" parent="LR5BryFxUAawPIUA4l_Y-12" vertex="1">
          <mxGeometry width="518" height="224" as="geometry" />
        </mxCell>
        <mxCell id="LR5BryFxUAawPIUA4l_Y-14" value="FastMoney" style="text;html=1;align=center;verticalAlign=middle;whiteSpace=wrap;rounded=1;shadow=0;fontSize=23;fontStyle=1" parent="LR5BryFxUAawPIUA4l_Y-12" vertex="1">
          <mxGeometry x="2" width="141" height="49" as="geometry" />
        </mxCell>
        <mxCell id="LR5BryFxUAawPIUA4l_Y-15" value="" style="group" parent="LR5BryFxUAawPIUA4l_Y-12" vertex="1" connectable="0">
          <mxGeometry x="48" y="49" width="514" height="253.0000000000001" as="geometry" />
        </mxCell>
        <mxCell id="LR5BryFxUAawPIUA4l_Y-16" value="" style="rounded=1;whiteSpace=wrap;html=1;arcSize=5;fillColor=#fff2cc;strokeColor=#d6b656;" parent="LR5BryFxUAawPIUA4l_Y-15" vertex="1">
          <mxGeometry width="514" height="244" as="geometry" />
        </mxCell>
        <mxCell id="LR5BryFxUAawPIUA4l_Y-17" value="Яндекс.Pay" style="text;html=1;align=center;verticalAlign=middle;whiteSpace=wrap;rounded=1;shadow=0;fontSize=23;fontStyle=1" parent="LR5BryFxUAawPIUA4l_Y-15" vertex="1">
          <mxGeometry width="150" height="49" as="geometry" />
        </mxCell>
        <mxCell id="LR5BryFxUAawPIUA4l_Y-312" value="" style="group" parent="LR5BryFxUAawPIUA4l_Y-15" vertex="1" connectable="0">
          <mxGeometry x="242" y="41" width="260" height="39" as="geometry" />
        </mxCell>
        <mxCell id="LR5BryFxUAawPIUA4l_Y-313" value="" style="rounded=1;whiteSpace=wrap;html=1;fillColor=#ffe6cc;strokeColor=#d79b00;" parent="LR5BryFxUAawPIUA4l_Y-312" vertex="1">
          <mxGeometry x="10" width="250" height="39" as="geometry" />
        </mxCell>
        <mxCell id="LR5BryFxUAawPIUA4l_Y-314" value="" style="sketch=0;outlineConnect=0;fontColor=#232F3E;gradientColor=none;fillColor=#232F3D;strokeColor=none;dashed=0;verticalLabelPosition=bottom;verticalAlign=top;align=center;html=1;fontSize=12;fontStyle=0;aspect=fixed;pointerEvents=1;shape=mxgraph.aws4.gear;rounded=1;" parent="LR5BryFxUAawPIUA4l_Y-312" vertex="1">
          <mxGeometry x="230" y="11" width="17" height="17" as="geometry" />
        </mxCell>
        <mxCell id="LR5BryFxUAawPIUA4l_Y-315" value="Инициировать платёж" style="text;html=1;align=center;verticalAlign=middle;whiteSpace=wrap;rounded=1;fontSize=13;" parent="LR5BryFxUAawPIUA4l_Y-312" vertex="1">
          <mxGeometry y="4.5" width="170" height="30" as="geometry" />
        </mxCell>
        <mxCell id="LR5BryFxUAawPIUA4l_Y-316" value="" style="group" parent="LR5BryFxUAawPIUA4l_Y-15" vertex="1" connectable="0">
          <mxGeometry x="242" y="91" width="260" height="39" as="geometry" />
        </mxCell>
        <mxCell id="LR5BryFxUAawPIUA4l_Y-317" value="" style="rounded=1;whiteSpace=wrap;html=1;fillColor=#ffe6cc;strokeColor=#d79b00;" parent="LR5BryFxUAawPIUA4l_Y-316" vertex="1">
          <mxGeometry x="10" width="250" height="39" as="geometry" />
        </mxCell>
        <mxCell id="LR5BryFxUAawPIUA4l_Y-318" value="" style="sketch=0;outlineConnect=0;fontColor=#232F3E;gradientColor=none;fillColor=#232F3D;strokeColor=none;dashed=0;verticalLabelPosition=bottom;verticalAlign=top;align=center;html=1;fontSize=12;fontStyle=0;aspect=fixed;pointerEvents=1;shape=mxgraph.aws4.gear;rounded=1;" parent="LR5BryFxUAawPIUA4l_Y-316" vertex="1">
          <mxGeometry x="230" y="11" width="17" height="17" as="geometry" />
        </mxCell>
        <mxCell id="LR5BryFxUAawPIUA4l_Y-319" value="Подтвердить платёж" style="text;html=1;align=center;verticalAlign=middle;whiteSpace=wrap;rounded=1;fontSize=13;" parent="LR5BryFxUAawPIUA4l_Y-316" vertex="1">
          <mxGeometry y="4.5" width="170" height="30" as="geometry" />
        </mxCell>
        <mxCell id="LR5BryFxUAawPIUA4l_Y-320" value="" style="group" parent="LR5BryFxUAawPIUA4l_Y-15" vertex="1" connectable="0">
          <mxGeometry x="252" y="141" width="250" height="39" as="geometry" />
        </mxCell>
        <mxCell id="LR5BryFxUAawPIUA4l_Y-321" value="" style="rounded=1;whiteSpace=wrap;html=1;fillColor=#ffe6cc;strokeColor=#d79b00;" parent="LR5BryFxUAawPIUA4l_Y-320" vertex="1">
          <mxGeometry width="250" height="39" as="geometry" />
        </mxCell>
        <mxCell id="LR5BryFxUAawPIUA4l_Y-322" value="" style="sketch=0;outlineConnect=0;fontColor=#232F3E;gradientColor=none;fillColor=#232F3D;strokeColor=none;dashed=0;verticalLabelPosition=bottom;verticalAlign=top;align=center;html=1;fontSize=12;fontStyle=0;aspect=fixed;pointerEvents=1;shape=mxgraph.aws4.gear;rounded=1;" parent="LR5BryFxUAawPIUA4l_Y-320" vertex="1">
          <mxGeometry x="220" y="11" width="17" height="17" as="geometry" />
        </mxCell>
        <mxCell id="LR5BryFxUAawPIUA4l_Y-323" value="Предоставить статус платежа" style="text;html=1;align=center;verticalAlign=middle;whiteSpace=wrap;rounded=1;fontSize=13;" parent="LR5BryFxUAawPIUA4l_Y-320" vertex="1">
          <mxGeometry y="4.5" width="200" height="30" as="geometry" />
        </mxCell>
        <mxCell id="LR5BryFxUAawPIUA4l_Y-324" value="" style="group" parent="LR5BryFxUAawPIUA4l_Y-15" vertex="1" connectable="0">
          <mxGeometry x="242" y="191" width="260" height="39" as="geometry" />
        </mxCell>
        <mxCell id="LR5BryFxUAawPIUA4l_Y-325" value="" style="rounded=1;whiteSpace=wrap;html=1;fillColor=#ffe6cc;strokeColor=#d79b00;" parent="LR5BryFxUAawPIUA4l_Y-324" vertex="1">
          <mxGeometry x="10" width="250" height="39" as="geometry" />
        </mxCell>
        <mxCell id="LR5BryFxUAawPIUA4l_Y-326" value="" style="sketch=0;outlineConnect=0;fontColor=#232F3E;gradientColor=none;fillColor=#232F3D;strokeColor=none;dashed=0;verticalLabelPosition=bottom;verticalAlign=top;align=center;html=1;fontSize=12;fontStyle=0;aspect=fixed;pointerEvents=1;shape=mxgraph.aws4.gear;rounded=1;" parent="LR5BryFxUAawPIUA4l_Y-324" vertex="1">
          <mxGeometry x="230" y="11" width="17" height="17" as="geometry" />
        </mxCell>
        <mxCell id="LR5BryFxUAawPIUA4l_Y-327" value="Подтвердить отмену платежа" style="text;html=1;align=center;verticalAlign=middle;whiteSpace=wrap;rounded=1;fontSize=13;" parent="LR5BryFxUAawPIUA4l_Y-324" vertex="1">
          <mxGeometry y="4.5" width="210" height="30" as="geometry" />
        </mxCell>
        <mxCell id="LR5BryFxUAawPIUA4l_Y-71" value="" style="strokeWidth=2;html=1;shape=mxgraph.flowchart.database;whiteSpace=wrap;rounded=1;movable=1;resizable=1;rotatable=1;deletable=1;editable=1;locked=0;connectable=1;" parent="LR5BryFxUAawPIUA4l_Y-15" vertex="1">
          <mxGeometry x="12" y="59" width="220" height="171" as="geometry" />
        </mxCell>
        <mxCell id="LR5BryFxUAawPIUA4l_Y-74" value="&lt;p style=&quot;margin: 0px 0px 0px 13px; text-indent: -13px; font-variant-numeric: normal; font-variant-east-asian: normal; font-variant-alternates: normal; font-kerning: auto; font-optical-sizing: auto; font-feature-settings: normal; font-variation-settings: normal; font-variant-position: normal; font-stretch: normal; font-size: 14px; line-height: normal; text-align: start;&quot; class=&quot;p1&quot;&gt;&lt;span style=&quot;font-size: 12px; text-align: center; text-indent: 0px;&quot;&gt;[Транзакция.Статус]&lt;/span&gt;&lt;br&gt;&lt;/p&gt;" style="rounded=1;whiteSpace=wrap;html=1;fillColor=#B8B8B8;strokeColor=#FFD966;" parent="LR5BryFxUAawPIUA4l_Y-15" vertex="1">
          <mxGeometry x="62" y="149" width="119" height="21" as="geometry" />
        </mxCell>
        <mxCell id="LR5BryFxUAawPIUA4l_Y-75" value="&lt;p style=&quot;margin: 0px 0px 0px 13px; text-indent: -13px; font-variant-numeric: normal; font-variant-east-asian: normal; font-variant-alternates: normal; font-kerning: auto; font-optical-sizing: auto; font-feature-settings: normal; font-variation-settings: normal; font-variant-position: normal; font-stretch: normal; font-size: 14px; line-height: normal; text-align: start;&quot; class=&quot;p1&quot;&gt;&lt;span style=&quot;font-size: 12px; text-align: center; text-indent: 0px;&quot;&gt;[Транзакция.ID]&lt;/span&gt;&lt;br&gt;&lt;/p&gt;" style="rounded=1;whiteSpace=wrap;html=1;fillColor=#B8B8B8;strokeColor=#FFD966;" parent="LR5BryFxUAawPIUA4l_Y-15" vertex="1">
          <mxGeometry x="62" y="179" width="119" height="21" as="geometry" />
        </mxCell>
        <mxCell id="KEMRwMlC_l3wsv7uTXtr-64" value="2" style="ellipse;whiteSpace=wrap;html=1;aspect=fixed;rounded=1;fillColor=#FF77BF;" vertex="1" parent="LR5BryFxUAawPIUA4l_Y-15">
          <mxGeometry x="72" y="230.0000000000001" width="23" height="23" as="geometry" />
        </mxCell>
        <mxCell id="KEMRwMlC_l3wsv7uTXtr-70" value="5" style="ellipse;whiteSpace=wrap;html=1;aspect=fixed;rounded=1;fillColor=#FF77BF;" vertex="1" parent="LR5BryFxUAawPIUA4l_Y-15">
          <mxGeometry x="202" y="230.0000000000001" width="23" height="23" as="geometry" />
        </mxCell>
        <mxCell id="LR5BryFxUAawPIUA4l_Y-18" value="" style="rounded=1;whiteSpace=wrap;html=1;arcSize=0;" parent="1" vertex="1">
          <mxGeometry x="961" y="1207" width="1128" height="343" as="geometry" />
        </mxCell>
        <mxCell id="LR5BryFxUAawPIUA4l_Y-19" value="" style="rounded=1;whiteSpace=wrap;html=1;arcSize=3;movable=1;resizable=1;rotatable=1;deletable=1;editable=1;locked=0;connectable=1;fillColor=#f5f5f5;strokeColor=#1C57CD;strokeWidth=3;fontColor=#333333;" parent="1" vertex="1">
          <mxGeometry x="1280" y="110" width="2550" height="1030" as="geometry" />
        </mxCell>
        <mxCell id="LR5BryFxUAawPIUA4l_Y-20" value="Система управления торговыми площадками" style="text;html=1;align=center;verticalAlign=middle;whiteSpace=wrap;rounded=1;shadow=0;fontSize=23;fontStyle=1" parent="1" vertex="1">
          <mxGeometry x="1364" y="104" width="549" height="49" as="geometry" />
        </mxCell>
        <mxCell id="LR5BryFxUAawPIUA4l_Y-21" value="" style="strokeWidth=2;html=1;shape=mxgraph.flowchart.database;whiteSpace=wrap;rounded=1;movable=1;resizable=1;rotatable=1;deletable=1;editable=1;locked=0;connectable=1;" parent="1" vertex="1">
          <mxGeometry x="3210" y="136.48" width="586" height="956.6" as="geometry" />
        </mxCell>
        <mxCell id="LR5BryFxUAawPIUA4l_Y-43" value="Администратор" style="shape=umlActor;verticalLabelPosition=bottom;verticalAlign=top;html=1;outlineConnect=0;rounded=1;" parent="1" vertex="1">
          <mxGeometry x="1000" y="380" width="65" height="141" as="geometry" />
        </mxCell>
        <mxCell id="LR5BryFxUAawPIUA4l_Y-44" value="" style="endArrow=classic;html=1;rounded=1;dashed=1;entryX=0.961;entryY=0.023;entryDx=0;entryDy=0;entryPerimeter=0;" parent="1" source="LR5BryFxUAawPIUA4l_Y-43" target="LR5BryFxUAawPIUA4l_Y-76" edge="1">
          <mxGeometry width="50" height="50" relative="1" as="geometry">
            <mxPoint x="1166" y="544" as="sourcePoint" />
            <mxPoint x="1162" y="979" as="targetPoint" />
            <Array as="points" />
          </mxGeometry>
        </mxCell>
        <mxCell id="LR5BryFxUAawPIUA4l_Y-45" value="WAN" style="text;html=1;align=center;verticalAlign=middle;whiteSpace=wrap;rounded=1;shadow=0;fontSize=23;fontStyle=1" parent="1" vertex="1">
          <mxGeometry x="960" y="-600" width="85" height="49" as="geometry" />
        </mxCell>
        <mxCell id="LR5BryFxUAawPIUA4l_Y-46" value="LAN" style="text;html=1;align=center;verticalAlign=middle;whiteSpace=wrap;rounded=1;shadow=0;fontSize=23;fontStyle=1" parent="1" vertex="1">
          <mxGeometry x="960" y="-200" width="85" height="49" as="geometry" />
        </mxCell>
        <mxCell id="LR5BryFxUAawPIUA4l_Y-76" value="Редактировать аукцион&lt;div&gt;Валидировать заявку&lt;/div&gt;" style="text;html=1;align=center;verticalAlign=middle;whiteSpace=wrap;rounded=1;fontSize=13;" parent="1" vertex="1">
          <mxGeometry x="1050" y="450" width="243" height="30" as="geometry" />
        </mxCell>
        <mxCell id="LR5BryFxUAawPIUA4l_Y-77" value="Специалист поддержки" style="shape=umlActor;verticalLabelPosition=bottom;verticalAlign=top;html=1;outlineConnect=0;rounded=1;" parent="1" vertex="1">
          <mxGeometry x="1000" y="610" width="65" height="141" as="geometry" />
        </mxCell>
        <mxCell id="LR5BryFxUAawPIUA4l_Y-78" value="" style="endArrow=classic;html=1;rounded=1;dashed=1;" parent="1" edge="1">
          <mxGeometry width="50" height="50" relative="1" as="geometry">
            <mxPoint x="1070" y="670.4343434343436" as="sourcePoint" />
            <mxPoint x="1285" y="670" as="targetPoint" />
            <Array as="points" />
          </mxGeometry>
        </mxCell>
        <mxCell id="LR5BryFxUAawPIUA4l_Y-79" value="&lt;div&gt;Изменить статус заявки&lt;/div&gt;&lt;div&gt;на поддержку&lt;/div&gt;" style="text;html=1;align=center;verticalAlign=middle;whiteSpace=wrap;rounded=1;fontSize=13;" parent="1" vertex="1">
          <mxGeometry x="1050" y="670" width="243" height="30" as="geometry" />
        </mxCell>
        <mxCell id="LR5BryFxUAawPIUA4l_Y-80" value="" style="rounded=1;whiteSpace=wrap;html=1;arcSize=3;fillColor=#f5f5f5;strokeColor=#1C57CD;strokeWidth=3;align=center;verticalAlign=middle;fontFamily=Helvetica;fontSize=12;fontColor=#333333;resizable=1;" parent="1" vertex="1">
          <mxGeometry x="1670" y="-160" width="650" height="210" as="geometry" />
        </mxCell>
        <mxCell id="LR5BryFxUAawPIUA4l_Y-81" value="Портал электронной площадки" style="text;html=1;align=center;verticalAlign=middle;whiteSpace=wrap;rounded=1;shadow=0;fontSize=23;fontStyle=1" parent="1" vertex="1">
          <mxGeometry x="1737" y="-158" width="380" height="49" as="geometry" />
        </mxCell>
        <mxCell id="LR5BryFxUAawPIUA4l_Y-82" value="&lt;p style=&quot;margin: 0px 0px 0px 13px; text-indent: -13px; font-variant-numeric: normal; font-variant-east-asian: normal; font-variant-alternates: normal; font-kerning: auto; font-optical-sizing: auto; font-feature-settings: normal; font-variation-settings: normal; font-variant-position: normal; font-stretch: normal; font-size: 14px; line-height: normal; color: rgb(14, 14, 14); text-align: start;&quot; class=&quot;p1&quot;&gt;&lt;font face=&quot;Times New Roman&quot;&gt;Объект данных&lt;/font&gt;&lt;/p&gt;" style="rounded=1;whiteSpace=wrap;html=1;fillColor=#b1ddf0;strokeColor=#10739e;" parent="1" vertex="1">
          <mxGeometry x="1381" y="1444" width="101" height="21" as="geometry" />
        </mxCell>
        <mxCell id="LR5BryFxUAawPIUA4l_Y-83" value="&lt;font style=&quot;font-size: 14px;&quot;&gt;СУБД&lt;/font&gt;" style="strokeWidth=2;html=1;shape=mxgraph.flowchart.database;whiteSpace=wrap;rounded=1;movable=1;resizable=1;rotatable=1;deletable=1;editable=1;locked=0;connectable=1;" parent="1" vertex="1">
          <mxGeometry x="1370" y="1309" width="137" height="87" as="geometry" />
        </mxCell>
        <mxCell id="LR5BryFxUAawPIUA4l_Y-84" value="Пользователь (Роль)" style="shape=umlActor;verticalLabelPosition=bottom;verticalAlign=top;html=1;outlineConnect=0;rounded=1;" parent="1" vertex="1">
          <mxGeometry x="1973" y="1276" width="65" height="141" as="geometry" />
        </mxCell>
        <mxCell id="LR5BryFxUAawPIUA4l_Y-85" value="&lt;p style=&quot;margin: 0px 0px 0px 13px; text-indent: -13px; font-variant-numeric: normal; font-variant-east-asian: normal; font-variant-alternates: normal; font-kerning: auto; font-optical-sizing: auto; font-feature-settings: normal; font-variation-settings: normal; font-variant-position: normal; font-stretch: normal; line-height: normal; text-align: start;&quot; class=&quot;p1&quot;&gt;&lt;span style=&quot;text-align: center; text-indent: 0px;&quot;&gt;&lt;font style=&quot;font-size: 14px;&quot; face=&quot;Times New Roman&quot;&gt;Объект даных внешних сервисов&lt;/font&gt;&lt;/span&gt;&lt;br&gt;&lt;/p&gt;" style="rounded=1;whiteSpace=wrap;html=1;fillColor=#B8B8B8;strokeColor=#FFD966;" parent="1" vertex="1">
          <mxGeometry x="1379" y="1478" width="204" height="21" as="geometry" />
        </mxCell>
        <mxCell id="LR5BryFxUAawPIUA4l_Y-86" value="" style="endArrow=classic;html=1;rounded=1;curved=0;strokeWidth=2;" parent="1" edge="1">
          <mxGeometry width="50" height="50" relative="1" as="geometry">
            <mxPoint x="1670" y="1390" as="sourcePoint" />
            <mxPoint x="1880" y="1390" as="targetPoint" />
            <Array as="points">
              <mxPoint x="1670" y="1390" />
            </Array>
          </mxGeometry>
        </mxCell>
        <mxCell id="LR5BryFxUAawPIUA4l_Y-87" value="&lt;font style=&quot;font-size: 12px;&quot;&gt;Подтверждение отмены&amp;nbsp;&lt;/font&gt;&lt;div&gt;&lt;font style=&quot;font-size: 12px;&quot;&gt;платежа&lt;/font&gt;&lt;/div&gt;" style="edgeLabel;html=1;align=center;verticalAlign=middle;resizable=0;points=[];rounded=1;" parent="LR5BryFxUAawPIUA4l_Y-86" vertex="1" connectable="0">
          <mxGeometry x="0.1936" y="1" relative="1" as="geometry">
            <mxPoint x="-24" y="-39" as="offset" />
          </mxGeometry>
        </mxCell>
        <mxCell id="LR5BryFxUAawPIUA4l_Y-88" value="&lt;font style=&quot;font-size: 12px;&quot;&gt;[Транзакция.Статус]&lt;/font&gt;" style="text;html=1;align=center;verticalAlign=middle;whiteSpace=wrap;rounded=1;fontSize=13;labelBackgroundColor=none;fontColor=#B8B8B8;" parent="1" vertex="1">
          <mxGeometry x="1685" y="1360" width="160" height="30" as="geometry" />
        </mxCell>
        <mxCell id="LR5BryFxUAawPIUA4l_Y-89" value="" style="endArrow=classic;html=1;rounded=1;dashed=1;strokeWidth=2;" parent="1" edge="1">
          <mxGeometry width="50" height="50" relative="1" as="geometry">
            <mxPoint x="1669" y="1440" as="sourcePoint" />
            <mxPoint x="1884" y="1440" as="targetPoint" />
            <Array as="points" />
          </mxGeometry>
        </mxCell>
        <mxCell id="LR5BryFxUAawPIUA4l_Y-90" value="&lt;span style=&quot;font-size: 12px;&quot;&gt;Пользовательский поток&lt;/span&gt;" style="edgeLabel;html=1;align=center;verticalAlign=middle;resizable=0;points=[];rounded=1;" parent="1" vertex="1" connectable="0">
          <mxGeometry x="1770.9951851851852" y="1469" as="geometry">
            <mxPoint x="-2" y="-47" as="offset" />
          </mxGeometry>
        </mxCell>
        <mxCell id="LR5BryFxUAawPIUA4l_Y-91" value="Клиент" style="shape=umlActor;verticalLabelPosition=bottom;verticalAlign=top;html=1;outlineConnect=0;rounded=1;" parent="1" vertex="1">
          <mxGeometry x="1953" y="-467" width="65" height="141" as="geometry" />
        </mxCell>
        <mxCell id="LR5BryFxUAawPIUA4l_Y-92" value="" style="endArrow=classic;html=1;rounded=1;dashed=1;entryX=0.727;entryY=0.031;entryDx=0;entryDy=0;entryPerimeter=0;fontSize=12;" parent="1" source="LR5BryFxUAawPIUA4l_Y-91" edge="1">
          <mxGeometry width="50" height="50" relative="1" as="geometry">
            <mxPoint x="1985" y="-420" as="sourcePoint" />
            <mxPoint x="1986.2600000000002" y="-156.48099999999977" as="targetPoint" />
            <Array as="points" />
          </mxGeometry>
        </mxCell>
        <mxCell id="LR5BryFxUAawPIUA4l_Y-93" value="1" style="ellipse;whiteSpace=wrap;html=1;aspect=fixed;rounded=1;fillColor=#FF77BF;" parent="1" vertex="1">
          <mxGeometry x="1678" y="1494" width="23" height="23" as="geometry" />
        </mxCell>
        <mxCell id="LR5BryFxUAawPIUA4l_Y-94" value="&lt;span style=&quot;font-size: 18px;&quot;&gt;&lt;i&gt;Номер потока&lt;/i&gt;&lt;/span&gt;" style="text;html=1;align=center;verticalAlign=middle;whiteSpace=wrap;rounded=1;shadow=0;fontSize=23;fontStyle=0" parent="1" vertex="1">
          <mxGeometry x="1689" y="1481" width="161" height="49" as="geometry" />
        </mxCell>
        <mxCell id="LR5BryFxUAawPIUA4l_Y-95" value="&lt;h1 style=&quot;margin-top: 0px; font-size: 15px;&quot;&gt;&lt;p class=&quot;p1&quot; style=&quot;margin: 0px 0px 0px 21px; text-indent: -21px; font-variant-numeric: normal; font-variant-east-asian: normal; font-variant-alternates: normal; font-kerning: auto; font-optical-sizing: auto; font-feature-settings: normal; font-variation-settings: normal; font-variant-position: normal; font-stretch: normal; font-size: 15px; line-height: normal; color: rgb(14, 14, 14);&quot;&gt;&lt;span class=&quot;s1&quot; style=&quot;font-weight: 400; font-variant-numeric: normal; font-variant-east-asian: normal; font-variant-alternates: normal; font-kerning: auto; font-optical-sizing: auto; font-feature-settings: normal; font-variation-settings: normal; font-variant-position: normal; font-stretch: normal; line-height: normal; font-family: &amp;quot;Times New Roman&amp;quot;; font-size: 15px;&quot;&gt;1.&amp;nbsp;&lt;/span&gt;&lt;b style=&quot;font-size: 15px;&quot;&gt;Инициировать платёж&lt;/b&gt;&lt;b style=&quot;font-weight: 400; font-size: 15px;&quot;&gt;&amp;nbsp;&lt;/b&gt;&lt;span style=&quot;background-color: initial; color: rgb(51, 51, 51); font-family: &amp;quot;YS Text&amp;quot;, -apple-system, BlinkMacSystemFont, Arial, Helvetica, sans-serif; font-size: 16px; font-weight: 400;&quot;&gt;—&lt;/span&gt;&lt;span style=&quot;background-color: initial; color: rgb(0, 0, 0); font-weight: normal;&quot;&gt;&amp;nbsp;т&lt;/span&gt;&lt;span style=&quot;background-color: initial; font-weight: 400;&quot;&gt;орговая площадка инициирует платёж, отправив необходимые данные (ID пользователя, ID заказа, сумма заказа) в платёжный сервис.&lt;/span&gt;&lt;/p&gt;&lt;p class=&quot;p1&quot; style=&quot;margin: 0px 0px 0px 21px; text-indent: -21px; font-variant-numeric: normal; font-variant-east-asian: normal; font-variant-alternates: normal; font-kerning: auto; font-optical-sizing: auto; font-feature-settings: normal; font-variation-settings: normal; font-variant-position: normal; font-weight: 400; font-stretch: normal; font-size: 15px; line-height: normal; color: rgb(14, 14, 14);&quot;&gt;&lt;span class=&quot;s1&quot; style=&quot;font-variant-numeric: normal; font-variant-east-asian: normal; font-variant-alternates: normal; font-kerning: auto; font-optical-sizing: auto; font-feature-settings: normal; font-variation-settings: normal; font-variant-position: normal; font-stretch: normal; line-height: normal; font-family: &amp;quot;Times New Roman&amp;quot;; font-size: 15px;&quot;&gt;2.&amp;nbsp;&lt;/span&gt;&lt;b style=&quot;font-size: 15px;&quot;&gt;Предоставить статус платежа&amp;nbsp;&lt;/b&gt;&lt;span style=&quot;background-color: initial; color: rgb(51, 51, 51); font-family: &amp;quot;YS Text&amp;quot;, -apple-system, BlinkMacSystemFont, Arial, Helvetica, sans-serif; font-size: 16px;&quot;&gt;— п&lt;/span&gt;&lt;span style=&quot;background-color: initial; color: rgb(0, 0, 0);&quot;&gt;латё&lt;/span&gt;&lt;span style=&quot;background-color: initial; color: rgb(0, 0, 0);&quot;&gt;жный сервис принял запрос на проведение оплаты,&lt;/span&gt;&lt;span style=&quot;background-color: initial;&quot; class=&quot;Apple-converted-space&quot;&gt;&amp;nbsp;&lt;/span&gt;&lt;span style=&quot;background-color: initial;&quot;&gt;подтвердил возможность проведения платежа со счёта клиента, назначил идентификатор для этой транзакции и установил статус.&lt;/span&gt;&lt;/p&gt;&lt;p class=&quot;p1&quot; style=&quot;margin: 0px 0px 0px 21px; text-indent: -21px; font-variant-numeric: normal; font-variant-east-asian: normal; font-variant-alternates: normal; font-kerning: auto; font-optical-sizing: auto; font-feature-settings: normal; font-variation-settings: normal; font-variant-position: normal; font-weight: 400; font-stretch: normal; font-size: 15px; line-height: normal; color: rgb(14, 14, 14);&quot;&gt;&lt;span class=&quot;s1&quot; style=&quot;font-variant-numeric: normal; font-variant-east-asian: normal; font-variant-alternates: normal; font-kerning: auto; font-optical-sizing: auto; font-feature-settings: normal; font-variation-settings: normal; font-variant-position: normal; font-stretch: normal; line-height: normal; font-family: &amp;quot;Times New Roman&amp;quot;; font-size: 15px;&quot;&gt;3.&amp;nbsp;&lt;/span&gt;&lt;b style=&quot;font-size: 15px;&quot;&gt;Подтверждение платежа&amp;nbsp;&lt;/b&gt;&lt;span style=&quot;background-color: initial; color: rgb(51, 51, 51); font-family: &amp;quot;YS Text&amp;quot;, -apple-system, BlinkMacSystemFont, Arial, Helvetica, sans-serif; font-size: 16px;&quot;&gt;— т&lt;/span&gt;&lt;span style=&quot;background-color: initial; color: rgb(0, 0, 0);&quot;&gt;орговая площадка уведомляет платёжный сервис о подтверждении операции, отправляя ID транзакции.&lt;/span&gt;&lt;/p&gt;&lt;p class=&quot;p1&quot; style=&quot;margin: 0px 0px 0px 21px; text-indent: -21px; font-variant-numeric: normal; font-variant-east-asian: normal; font-variant-alternates: normal; font-kerning: auto; font-optical-sizing: auto; font-feature-settings: normal; font-variation-settings: normal; font-variant-position: normal; font-weight: 400; font-stretch: normal; font-size: 15px; line-height: normal; color: rgb(14, 14, 14);&quot;&gt;&lt;span class=&quot;s1&quot; style=&quot;font-variant-numeric: normal; font-variant-east-asian: normal; font-variant-alternates: normal; font-kerning: auto; font-optical-sizing: auto; font-feature-settings: normal; font-variation-settings: normal; font-variant-position: normal; font-stretch: normal; line-height: normal; font-family: &amp;quot;Times New Roman&amp;quot;; font-size: 15px;&quot;&gt;4.&amp;nbsp;&lt;/span&gt;&lt;b style=&quot;font-size: 15px;&quot;&gt;Запросить статус платежа&lt;/b&gt;&amp;nbsp;&lt;span style=&quot;background-color: initial; color: rgb(51, 51, 51); font-family: &amp;quot;YS Text&amp;quot;, -apple-system, BlinkMacSystemFont, Arial, Helvetica, sans-serif; font-size: 16px;&quot;&gt;— т&lt;/span&gt;&lt;span style=&quot;background-color: initial; color: rgb(0, 0, 0);&quot;&gt;орговая площадка отправляет запрос в платёжный сервис для получения текущего статуса обработки транзакции по ID.&lt;/span&gt;&lt;/p&gt;&lt;p class=&quot;p1&quot; style=&quot;margin: 0px 0px 0px 21px; text-indent: -21px; font-variant-numeric: normal; font-variant-east-asian: normal; font-variant-alternates: normal; font-kerning: auto; font-optical-sizing: auto; font-feature-settings: normal; font-variation-settings: normal; font-variant-position: normal; font-weight: 400; font-stretch: normal; font-size: 15px; line-height: normal; color: rgb(14, 14, 14);&quot;&gt;&lt;span class=&quot;s1&quot; style=&quot;font-variant-numeric: normal; font-variant-east-asian: normal; font-variant-alternates: normal; font-kerning: auto; font-optical-sizing: auto; font-feature-settings: normal; font-variation-settings: normal; font-variant-position: normal; font-stretch: normal; line-height: normal; font-family: &amp;quot;Times New Roman&amp;quot;; font-size: 15px;&quot;&gt;5.&amp;nbsp;&lt;/span&gt;&lt;b style=&quot;font-size: 15px;&quot;&gt;Подтверждение отмены платежа (альтернативный сценарий)&amp;nbsp;&lt;/b&gt;&lt;span style=&quot;background-color: initial; color: rgb(51, 51, 51); font-family: &amp;quot;YS Text&amp;quot;, -apple-system, BlinkMacSystemFont, Arial, Helvetica, sans-serif; font-size: 16px;&quot;&gt;— п&lt;/span&gt;&lt;span style=&quot;background-color: initial; color: rgb(0, 0, 0);&quot;&gt;латёжный сервис уведомляет систему об успешной отмене платежа, предоставляя статус отменённой транзакции.&lt;/span&gt;&lt;/p&gt;&lt;/h1&gt;" style="text;html=1;whiteSpace=wrap;overflow=hidden;rounded=0;fontSize=15;" parent="1" vertex="1">
          <mxGeometry x="2100" y="1233" width="904" height="189" as="geometry" />
        </mxCell>
        <mxCell id="LR5BryFxUAawPIUA4l_Y-96" value="&lt;font style=&quot;font-size: 20px;&quot;&gt;Описание взаимодействий&lt;/font&gt;" style="text;html=1;align=center;verticalAlign=middle;whiteSpace=wrap;rounded=0;" parent="1" vertex="1">
          <mxGeometry x="2370" y="1194" width="310" height="30" as="geometry" />
        </mxCell>
        <mxCell id="LR5BryFxUAawPIUA4l_Y-102" value="" style="group" parent="1" vertex="1" connectable="0">
          <mxGeometry x="1680" y="-100" width="309" height="39" as="geometry" />
        </mxCell>
        <mxCell id="LR5BryFxUAawPIUA4l_Y-103" value="" style="group" parent="LR5BryFxUAawPIUA4l_Y-102" vertex="1" connectable="0">
          <mxGeometry width="309" height="39" as="geometry" />
        </mxCell>
        <mxCell id="LR5BryFxUAawPIUA4l_Y-104" value="" style="rounded=1;whiteSpace=wrap;html=1;fillColor=#1C57CD;strokeColor=none;" parent="LR5BryFxUAawPIUA4l_Y-103" vertex="1">
          <mxGeometry width="309" height="39" as="geometry" />
        </mxCell>
        <mxCell id="LR5BryFxUAawPIUA4l_Y-105" value="" style="sketch=0;outlineConnect=0;fontColor=#FFFFFF;gradientColor=none;fillColor=#FFFFFF;strokeColor=none;dashed=0;verticalLabelPosition=bottom;verticalAlign=top;align=center;html=1;fontSize=12;fontStyle=0;aspect=fixed;pointerEvents=1;shape=mxgraph.aws4.gear;rounded=1;" parent="LR5BryFxUAawPIUA4l_Y-103" vertex="1">
          <mxGeometry x="280" y="11" width="17" height="17" as="geometry" />
        </mxCell>
        <mxCell id="LR5BryFxUAawPIUA4l_Y-106" value="Зарегистрироваться на площадке" style="text;html=1;align=center;verticalAlign=middle;whiteSpace=wrap;rounded=1;fontSize=13;fontColor=#FFFFFF;" parent="LR5BryFxUAawPIUA4l_Y-103" vertex="1">
          <mxGeometry x="9" y="4.5" width="218" height="30" as="geometry" />
        </mxCell>
        <mxCell id="LR5BryFxUAawPIUA4l_Y-107" value="" style="group" parent="1" vertex="1" connectable="0">
          <mxGeometry x="1680" y="-50" width="309" height="39" as="geometry" />
        </mxCell>
        <mxCell id="LR5BryFxUAawPIUA4l_Y-108" value="" style="group" parent="LR5BryFxUAawPIUA4l_Y-107" vertex="1" connectable="0">
          <mxGeometry width="309" height="39" as="geometry" />
        </mxCell>
        <mxCell id="LR5BryFxUAawPIUA4l_Y-109" value="" style="rounded=1;whiteSpace=wrap;html=1;fillColor=#1C57CD;strokeColor=none;" parent="LR5BryFxUAawPIUA4l_Y-108" vertex="1">
          <mxGeometry width="309" height="39" as="geometry" />
        </mxCell>
        <mxCell id="LR5BryFxUAawPIUA4l_Y-110" value="" style="sketch=0;outlineConnect=0;fontColor=#FFFFFF;gradientColor=none;fillColor=#FFFFFF;strokeColor=none;dashed=0;verticalLabelPosition=bottom;verticalAlign=top;align=center;html=1;fontSize=12;fontStyle=0;aspect=fixed;pointerEvents=1;shape=mxgraph.aws4.gear;rounded=1;" parent="LR5BryFxUAawPIUA4l_Y-108" vertex="1">
          <mxGeometry x="280" y="11" width="17" height="17" as="geometry" />
        </mxCell>
        <mxCell id="LR5BryFxUAawPIUA4l_Y-111" value="Редактировать профиль" style="text;html=1;align=center;verticalAlign=middle;whiteSpace=wrap;rounded=1;fontSize=13;fontColor=#FFFFFF;" parent="LR5BryFxUAawPIUA4l_Y-108" vertex="1">
          <mxGeometry x="8" y="4.5" width="164" height="30" as="geometry" />
        </mxCell>
        <mxCell id="LR5BryFxUAawPIUA4l_Y-112" value="" style="group" parent="1" vertex="1" connectable="0">
          <mxGeometry x="1680" width="309" height="39" as="geometry" />
        </mxCell>
        <mxCell id="LR5BryFxUAawPIUA4l_Y-113" value="" style="group" parent="LR5BryFxUAawPIUA4l_Y-112" vertex="1" connectable="0">
          <mxGeometry width="309" height="39" as="geometry" />
        </mxCell>
        <mxCell id="LR5BryFxUAawPIUA4l_Y-114" value="" style="rounded=1;whiteSpace=wrap;html=1;fillColor=#1C57CD;strokeColor=none;" parent="LR5BryFxUAawPIUA4l_Y-113" vertex="1">
          <mxGeometry width="309" height="39" as="geometry" />
        </mxCell>
        <mxCell id="LR5BryFxUAawPIUA4l_Y-115" value="" style="sketch=0;outlineConnect=0;fontColor=#FFFFFF;gradientColor=none;fillColor=#FFFFFF;strokeColor=none;dashed=0;verticalLabelPosition=bottom;verticalAlign=top;align=center;html=1;fontSize=12;fontStyle=0;aspect=fixed;pointerEvents=1;shape=mxgraph.aws4.gear;rounded=1;" parent="LR5BryFxUAawPIUA4l_Y-113" vertex="1">
          <mxGeometry x="280" y="11" width="17" height="17" as="geometry" />
        </mxCell>
        <mxCell id="LR5BryFxUAawPIUA4l_Y-116" value="Разместить заказ" style="text;html=1;align=center;verticalAlign=middle;whiteSpace=wrap;rounded=1;fontSize=13;fontColor=#FFFFFF;" parent="LR5BryFxUAawPIUA4l_Y-113" vertex="1">
          <mxGeometry x="14" y="3" width="117" height="30" as="geometry" />
        </mxCell>
        <mxCell id="LR5BryFxUAawPIUA4l_Y-117" value="" style="group" parent="1" vertex="1" connectable="0">
          <mxGeometry x="2000" y="-100" width="309" height="39" as="geometry" />
        </mxCell>
        <mxCell id="LR5BryFxUAawPIUA4l_Y-118" value="" style="group" parent="LR5BryFxUAawPIUA4l_Y-117" vertex="1" connectable="0">
          <mxGeometry width="309" height="39" as="geometry" />
        </mxCell>
        <mxCell id="LR5BryFxUAawPIUA4l_Y-119" value="" style="rounded=1;whiteSpace=wrap;html=1;fillColor=#1C57CD;strokeColor=none;" parent="LR5BryFxUAawPIUA4l_Y-118" vertex="1">
          <mxGeometry width="309" height="39" as="geometry" />
        </mxCell>
        <mxCell id="LR5BryFxUAawPIUA4l_Y-120" value="" style="sketch=0;outlineConnect=0;fontColor=#FFFFFF;gradientColor=none;fillColor=#FFFFFF;strokeColor=none;dashed=0;verticalLabelPosition=bottom;verticalAlign=top;align=center;html=1;fontSize=12;fontStyle=0;aspect=fixed;pointerEvents=1;shape=mxgraph.aws4.gear;rounded=1;" parent="LR5BryFxUAawPIUA4l_Y-118" vertex="1">
          <mxGeometry x="280" y="11" width="17" height="17" as="geometry" />
        </mxCell>
        <mxCell id="LR5BryFxUAawPIUA4l_Y-121" value="Разместить услугу" style="text;html=1;align=center;verticalAlign=middle;whiteSpace=wrap;rounded=1;fontSize=13;fontColor=#FFFFFF;" parent="LR5BryFxUAawPIUA4l_Y-118" vertex="1">
          <mxGeometry x="6" y="4.5" width="132" height="30" as="geometry" />
        </mxCell>
        <mxCell id="LR5BryFxUAawPIUA4l_Y-122" value="" style="group" parent="1" vertex="1" connectable="0">
          <mxGeometry x="2000" y="-50" width="309" height="39" as="geometry" />
        </mxCell>
        <mxCell id="LR5BryFxUAawPIUA4l_Y-123" value="" style="group" parent="LR5BryFxUAawPIUA4l_Y-122" vertex="1" connectable="0">
          <mxGeometry width="309" height="39" as="geometry" />
        </mxCell>
        <mxCell id="LR5BryFxUAawPIUA4l_Y-124" value="" style="rounded=1;whiteSpace=wrap;html=1;fillColor=#1C57CD;strokeColor=none;" parent="LR5BryFxUAawPIUA4l_Y-123" vertex="1">
          <mxGeometry width="309" height="39" as="geometry" />
        </mxCell>
        <mxCell id="LR5BryFxUAawPIUA4l_Y-125" value="" style="sketch=0;outlineConnect=0;fontColor=#FFFFFF;gradientColor=none;fillColor=#FFFFFF;strokeColor=none;dashed=0;verticalLabelPosition=bottom;verticalAlign=top;align=center;html=1;fontSize=12;fontStyle=0;aspect=fixed;pointerEvents=1;shape=mxgraph.aws4.gear;rounded=1;" parent="LR5BryFxUAawPIUA4l_Y-123" vertex="1">
          <mxGeometry x="280" y="11" width="17" height="17" as="geometry" />
        </mxCell>
        <mxCell id="LR5BryFxUAawPIUA4l_Y-126" value="Создать аукцион" style="text;html=1;align=center;verticalAlign=middle;whiteSpace=wrap;rounded=1;fontSize=13;fontColor=#FFFFFF;" parent="LR5BryFxUAawPIUA4l_Y-123" vertex="1">
          <mxGeometry x="10" y="4.5" width="110" height="30" as="geometry" />
        </mxCell>
        <mxCell id="LR5BryFxUAawPIUA4l_Y-127" value="" style="group" parent="1" vertex="1" connectable="0">
          <mxGeometry x="2000" width="309" height="39" as="geometry" />
        </mxCell>
        <mxCell id="LR5BryFxUAawPIUA4l_Y-128" value="" style="group" parent="LR5BryFxUAawPIUA4l_Y-127" vertex="1" connectable="0">
          <mxGeometry width="309" height="39" as="geometry" />
        </mxCell>
        <mxCell id="LR5BryFxUAawPIUA4l_Y-129" value="" style="rounded=1;whiteSpace=wrap;html=1;fillColor=#1C57CD;strokeColor=none;" parent="LR5BryFxUAawPIUA4l_Y-128" vertex="1">
          <mxGeometry width="309" height="39" as="geometry" />
        </mxCell>
        <mxCell id="LR5BryFxUAawPIUA4l_Y-130" value="" style="sketch=0;outlineConnect=0;fontColor=#FFFFFF;gradientColor=none;fillColor=#FFFFFF;strokeColor=none;dashed=0;verticalLabelPosition=bottom;verticalAlign=top;align=center;html=1;fontSize=12;fontStyle=0;aspect=fixed;pointerEvents=1;shape=mxgraph.aws4.gear;rounded=1;" parent="LR5BryFxUAawPIUA4l_Y-128" vertex="1">
          <mxGeometry x="280" y="11" width="17" height="17" as="geometry" />
        </mxCell>
        <mxCell id="LR5BryFxUAawPIUA4l_Y-131" value="Подать заявку на аукцион" style="text;html=1;align=center;verticalAlign=middle;whiteSpace=wrap;rounded=1;fontSize=13;fontColor=#FFFFFF;" parent="LR5BryFxUAawPIUA4l_Y-128" vertex="1">
          <mxGeometry x="10" y="4.5" width="167" height="30" as="geometry" />
        </mxCell>
        <mxCell id="LR5BryFxUAawPIUA4l_Y-328" value="" style="group" parent="1" vertex="1" connectable="0">
          <mxGeometry x="3427.5" y="271.47999999999996" width="151" height="49" as="geometry" />
        </mxCell>
        <mxCell id="LR5BryFxUAawPIUA4l_Y-329" value="&lt;p style=&quot;margin: 0px 0px 0px 13px; text-indent: -13px; font-variant-numeric: normal; font-variant-east-asian: normal; font-variant-alternates: normal; font-kerning: auto; font-optical-sizing: auto; font-feature-settings: normal; font-variation-settings: normal; font-variant-position: normal; font-stretch: normal; font-size: 14px; line-height: normal; color: rgb(14, 14, 14); text-align: start;&quot; class=&quot;p1&quot;&gt;&lt;br&gt;&lt;/p&gt;" style="rounded=1;whiteSpace=wrap;html=1;fillColor=#FF77BF;strokeColor=none;arcSize=50;" parent="LR5BryFxUAawPIUA4l_Y-328" vertex="1">
          <mxGeometry y="9" width="151" height="33" as="geometry" />
        </mxCell>
        <mxCell id="LR5BryFxUAawPIUA4l_Y-330" value="&lt;font style=&quot;font-size: 18px;&quot;&gt;&lt;i&gt;PostgreSQL&lt;/i&gt;&lt;/font&gt;" style="text;html=1;align=center;verticalAlign=middle;whiteSpace=wrap;rounded=1;shadow=0;fontSize=23;fontStyle=1" parent="LR5BryFxUAawPIUA4l_Y-328" vertex="1">
          <mxGeometry x="31" width="89" height="49" as="geometry" />
        </mxCell>
        <mxCell id="LR5BryFxUAawPIUA4l_Y-331" value="" style="group" parent="1" vertex="1" connectable="0">
          <mxGeometry x="1367" y="1236" width="270" height="39" as="geometry" />
        </mxCell>
        <mxCell id="LR5BryFxUAawPIUA4l_Y-332" value="" style="rounded=1;whiteSpace=wrap;html=1;strokeColor=none;fillColor=#1C57CD;" parent="LR5BryFxUAawPIUA4l_Y-331" vertex="1">
          <mxGeometry width="270" height="39" as="geometry" />
        </mxCell>
        <mxCell id="LR5BryFxUAawPIUA4l_Y-333" value="" style="sketch=0;outlineConnect=0;fontColor=#FFFFFF;gradientColor=none;fillColor=#FFFFFF;strokeColor=none;dashed=0;verticalLabelPosition=bottom;verticalAlign=top;align=center;html=1;fontSize=12;fontStyle=0;aspect=fixed;pointerEvents=1;shape=mxgraph.aws4.gear;rounded=1;" parent="LR5BryFxUAawPIUA4l_Y-331" vertex="1">
          <mxGeometry x="238" y="12" width="17" height="17" as="geometry" />
        </mxCell>
        <mxCell id="LR5BryFxUAawPIUA4l_Y-334" value="&lt;font style=&quot;font-size: 18px;&quot;&gt;Функция&lt;/font&gt;" style="text;html=1;align=center;verticalAlign=middle;whiteSpace=wrap;rounded=1;fontSize=13;fontColor=#FFFFFF;" parent="LR5BryFxUAawPIUA4l_Y-331" vertex="1">
          <mxGeometry x="22" y="5" width="78" height="30" as="geometry" />
        </mxCell>
        <mxCell id="LR5BryFxUAawPIUA4l_Y-335" value="" style="group" parent="1" vertex="1" connectable="0">
          <mxGeometry x="1683" y="1243" width="157" height="25" as="geometry" />
        </mxCell>
        <mxCell id="LR5BryFxUAawPIUA4l_Y-336" value="&lt;p style=&quot;margin: 0px 0px 0px 13px; text-indent: -13px; font-variant-numeric: normal; font-variant-east-asian: normal; font-variant-alternates: normal; font-kerning: auto; font-optical-sizing: auto; font-feature-settings: normal; font-variation-settings: normal; font-variant-position: normal; font-stretch: normal; font-size: 14px; line-height: normal; color: rgb(14, 14, 14); text-align: start;&quot; class=&quot;p1&quot;&gt;&lt;br&gt;&lt;/p&gt;" style="rounded=1;whiteSpace=wrap;html=1;fillColor=#FF77BF;strokeColor=none;arcSize=33;" parent="LR5BryFxUAawPIUA4l_Y-335" vertex="1">
          <mxGeometry x="3" y="1" width="151" height="24" as="geometry" />
        </mxCell>
        <mxCell id="LR5BryFxUAawPIUA4l_Y-337" value="&lt;span style=&quot;font-size: 18px;&quot;&gt;&lt;i&gt;Стэк/Окружение&lt;/i&gt;&lt;/span&gt;" style="text;html=1;align=center;verticalAlign=middle;whiteSpace=wrap;rounded=1;shadow=0;fontSize=23;fontStyle=1" parent="LR5BryFxUAawPIUA4l_Y-335" vertex="1">
          <mxGeometry width="157" height="17" as="geometry" />
        </mxCell>
        <mxCell id="LR5BryFxUAawPIUA4l_Y-338" value="" style="group" parent="1" vertex="1" connectable="0">
          <mxGeometry x="1007" y="1389" width="333" height="145" as="geometry" />
        </mxCell>
        <mxCell id="LR5BryFxUAawPIUA4l_Y-339" value="" style="rounded=1;whiteSpace=wrap;html=1;arcSize=5;fillColor=#fff2cc;strokeColor=#d6b656;" parent="LR5BryFxUAawPIUA4l_Y-338" vertex="1">
          <mxGeometry width="333" height="145" as="geometry" />
        </mxCell>
        <mxCell id="LR5BryFxUAawPIUA4l_Y-340" value="&lt;span style=&quot;font-weight: normal;&quot;&gt;Внешний/Партнёрский сервис&lt;/span&gt;" style="text;html=1;align=center;verticalAlign=middle;whiteSpace=wrap;rounded=1;shadow=0;fontSize=23;fontStyle=1" parent="LR5BryFxUAawPIUA4l_Y-338" vertex="1">
          <mxGeometry x="2" y="1" width="331" height="49" as="geometry" />
        </mxCell>
        <mxCell id="LR5BryFxUAawPIUA4l_Y-341" value="" style="group" parent="1" vertex="1" connectable="0">
          <mxGeometry x="1004" y="1221" width="331" height="143" as="geometry" />
        </mxCell>
        <mxCell id="LR5BryFxUAawPIUA4l_Y-342" value="" style="rounded=1;whiteSpace=wrap;html=1;arcSize=5;fillColor=#f5f5f5;strokeColor=#1C57CD;strokeWidth=3;" parent="LR5BryFxUAawPIUA4l_Y-341" vertex="1">
          <mxGeometry width="331" height="143" as="geometry" />
        </mxCell>
        <mxCell id="LR5BryFxUAawPIUA4l_Y-343" value="&lt;font style=&quot;font-size: 23px;&quot;&gt;Система/Сервис&lt;/font&gt;" style="text;html=1;align=center;verticalAlign=middle;whiteSpace=wrap;rounded=1;fontSize=13;" parent="LR5BryFxUAawPIUA4l_Y-341" vertex="1">
          <mxGeometry x="1" y="6" width="206" height="30" as="geometry" />
        </mxCell>
        <mxCell id="KEMRwMlC_l3wsv7uTXtr-16" value="" style="group" vertex="1" connectable="0" parent="1">
          <mxGeometry x="1310" y="170" width="344" height="889.55" as="geometry" />
        </mxCell>
        <mxCell id="KEMRwMlC_l3wsv7uTXtr-17" value="" style="rounded=1;whiteSpace=wrap;html=1;arcSize=3;fillColor=#f5f5f5;strokeColor=#1C57CD;strokeWidth=3;" vertex="1" parent="KEMRwMlC_l3wsv7uTXtr-16">
          <mxGeometry width="340" height="240" as="geometry" />
        </mxCell>
        <mxCell id="LR5BryFxUAawPIUA4l_Y-97" value="" style="group" parent="KEMRwMlC_l3wsv7uTXtr-16" vertex="1" connectable="0">
          <mxGeometry x="20.00000000000007" y="49.72000000000003" width="291.8333333333333" height="39" as="geometry" />
        </mxCell>
        <mxCell id="LR5BryFxUAawPIUA4l_Y-98" value="" style="group" parent="LR5BryFxUAawPIUA4l_Y-97" vertex="1" connectable="0">
          <mxGeometry width="291.8333333333333" height="39" as="geometry" />
        </mxCell>
        <mxCell id="LR5BryFxUAawPIUA4l_Y-99" value="" style="rounded=1;whiteSpace=wrap;html=1;gradientColor=none;fillColor=#1C57CD;strokeColor=none;movable=1;resizable=1;rotatable=1;deletable=1;editable=1;locked=0;connectable=1;" parent="LR5BryFxUAawPIUA4l_Y-98" vertex="1">
          <mxGeometry width="291.8333333333333" height="39" as="geometry" />
        </mxCell>
        <mxCell id="LR5BryFxUAawPIUA4l_Y-100" value="" style="sketch=0;outlineConnect=0;dashed=0;verticalLabelPosition=bottom;verticalAlign=top;align=center;html=1;fontSize=12;fontStyle=0;aspect=fixed;pointerEvents=1;shape=mxgraph.aws4.gear;rounded=1;strokeColor=none;fillColor=default;" parent="LR5BryFxUAawPIUA4l_Y-98" vertex="1">
          <mxGeometry x="264.44444444444446" y="11.000000000000002" width="4.316009557945041" height="4.316009557945041" as="geometry" />
        </mxCell>
        <mxCell id="LR5BryFxUAawPIUA4l_Y-101" value="Регистрация пользователя" style="text;html=1;align=center;verticalAlign=middle;whiteSpace=wrap;rounded=1;fontSize=13;fontColor=#FFFFFF;strokeColor=none;movable=1;resizable=1;rotatable=1;deletable=1;editable=1;locked=0;connectable=1;" parent="LR5BryFxUAawPIUA4l_Y-98" vertex="1">
          <mxGeometry x="2.833333333333333" y="4.5" width="162.44444444444443" height="30.000000000000004" as="geometry" />
        </mxCell>
        <mxCell id="LR5BryFxUAawPIUA4l_Y-132" value="" style="group" parent="KEMRwMlC_l3wsv7uTXtr-16" vertex="1" connectable="0">
          <mxGeometry x="20.00000000000007" y="93.72000000000003" width="291.8333333333333" height="39" as="geometry" />
        </mxCell>
        <mxCell id="LR5BryFxUAawPIUA4l_Y-133" value="" style="rounded=1;whiteSpace=wrap;html=1;fillColor=#1C57CD;strokeColor=none;" parent="LR5BryFxUAawPIUA4l_Y-132" vertex="1">
          <mxGeometry width="291.8333333333333" height="39" as="geometry" />
        </mxCell>
        <mxCell id="LR5BryFxUAawPIUA4l_Y-134" value="" style="sketch=0;outlineConnect=0;fontColor=#232F3E;gradientColor=none;fillColor=default;strokeColor=none;dashed=0;verticalLabelPosition=bottom;verticalAlign=top;align=center;html=1;fontSize=12;fontStyle=0;aspect=fixed;pointerEvents=1;shape=mxgraph.aws4.gear;rounded=1;" parent="LR5BryFxUAawPIUA4l_Y-132" vertex="1">
          <mxGeometry x="264.44444444444446" y="11.000000000000002" width="4.316009557945041" height="4.316009557945041" as="geometry" />
        </mxCell>
        <mxCell id="LR5BryFxUAawPIUA4l_Y-135" value="Аутентификация" style="text;html=1;align=center;verticalAlign=middle;whiteSpace=wrap;rounded=1;fontSize=13;fontColor=#FFFFFF;strokeColor=none;" parent="LR5BryFxUAawPIUA4l_Y-132" vertex="1">
          <mxGeometry x="1.8888888888888888" y="4.5" width="107.66666666666666" height="30.000000000000004" as="geometry" />
        </mxCell>
        <mxCell id="LR5BryFxUAawPIUA4l_Y-136" value="" style="group" parent="KEMRwMlC_l3wsv7uTXtr-16" vertex="1" connectable="0">
          <mxGeometry x="20.00000000000007" y="138.72000000000003" width="291.8333333333333" height="39" as="geometry" />
        </mxCell>
        <mxCell id="LR5BryFxUAawPIUA4l_Y-137" value="" style="rounded=1;whiteSpace=wrap;html=1;fillColor=#1C57CD;strokeColor=none;" parent="LR5BryFxUAawPIUA4l_Y-136" vertex="1">
          <mxGeometry width="291.8333333333333" height="39" as="geometry" />
        </mxCell>
        <mxCell id="LR5BryFxUAawPIUA4l_Y-138" value="" style="sketch=0;outlineConnect=0;fontColor=#232F3E;gradientColor=none;fillColor=default;strokeColor=none;dashed=0;verticalLabelPosition=bottom;verticalAlign=top;align=center;html=1;fontSize=12;fontStyle=0;aspect=fixed;pointerEvents=1;shape=mxgraph.aws4.gear;rounded=1;" parent="LR5BryFxUAawPIUA4l_Y-136" vertex="1">
          <mxGeometry x="264.44444444444446" y="11.000000000000002" width="4.316009557945041" height="4.316009557945041" as="geometry" />
        </mxCell>
        <mxCell id="LR5BryFxUAawPIUA4l_Y-139" value="Присвоение ролей" style="text;html=1;align=center;verticalAlign=middle;whiteSpace=wrap;rounded=1;fontSize=13;fontColor=#FFFFFF;strokeColor=none;" parent="LR5BryFxUAawPIUA4l_Y-136" vertex="1">
          <mxGeometry x="2.833333333333333" y="5.000000000000001" width="115.22222222222221" height="30.000000000000004" as="geometry" />
        </mxCell>
        <mxCell id="LR5BryFxUAawPIUA4l_Y-144" value="" style="group" parent="KEMRwMlC_l3wsv7uTXtr-16" vertex="1" connectable="0">
          <mxGeometry x="20.00000000000007" y="185" width="291.8333333333333" height="39" as="geometry" />
        </mxCell>
        <mxCell id="LR5BryFxUAawPIUA4l_Y-145" value="" style="rounded=1;whiteSpace=wrap;html=1;fillColor=#1C57CD;strokeColor=none;" parent="LR5BryFxUAawPIUA4l_Y-144" vertex="1">
          <mxGeometry width="291.8333333333333" height="39" as="geometry" />
        </mxCell>
        <mxCell id="LR5BryFxUAawPIUA4l_Y-146" value="" style="sketch=0;outlineConnect=0;fontColor=#232F3E;gradientColor=none;fillColor=default;strokeColor=none;dashed=0;verticalLabelPosition=bottom;verticalAlign=top;align=center;html=1;fontSize=12;fontStyle=0;aspect=fixed;pointerEvents=1;shape=mxgraph.aws4.gear;rounded=1;" parent="LR5BryFxUAawPIUA4l_Y-144" vertex="1">
          <mxGeometry x="264.44444444444446" y="11.000000000000002" width="4.316009557945041" height="4.316009557945041" as="geometry" />
        </mxCell>
        <mxCell id="LR5BryFxUAawPIUA4l_Y-147" value="Валидация токена безопасности" style="text;html=1;align=center;verticalAlign=middle;whiteSpace=wrap;rounded=1;fontSize=13;fontColor=#FFFFFF;strokeColor=none;" parent="LR5BryFxUAawPIUA4l_Y-144" vertex="1">
          <mxGeometry x="2.833333333333333" y="4.5" width="197.38888888888889" height="30.000000000000004" as="geometry" />
        </mxCell>
        <mxCell id="KEMRwMlC_l3wsv7uTXtr-18" value="&lt;span style=&quot;font-size: 23px;&quot;&gt;Пользователь&lt;/span&gt;" style="text;html=1;align=center;verticalAlign=middle;whiteSpace=wrap;rounded=1;fontSize=13;" vertex="1" parent="KEMRwMlC_l3wsv7uTXtr-16">
          <mxGeometry x="-10.001143001007149" y="-69.99902097902094" width="211.6012084592145" height="195.1048951048951" as="geometry" />
        </mxCell>
        <mxCell id="KEMRwMlC_l3wsv7uTXtr-20" value="" style="rounded=1;whiteSpace=wrap;html=1;arcSize=5;fillColor=#f5f5f5;strokeColor=#1C57CD;strokeWidth=3;" vertex="1" parent="1">
          <mxGeometry x="1670" y="170" width="340" height="240" as="geometry" />
        </mxCell>
        <mxCell id="KEMRwMlC_l3wsv7uTXtr-21" value="&lt;span style=&quot;font-size: 23px;&quot;&gt;Услуга&lt;/span&gt;" style="text;html=1;align=center;verticalAlign=middle;whiteSpace=wrap;rounded=1;fontSize=13;" vertex="1" parent="1">
          <mxGeometry x="1634.9676132930515" y="90.45097902097903" width="224.04833836858006" height="195.1048951048951" as="geometry" />
        </mxCell>
        <mxCell id="LR5BryFxUAawPIUA4l_Y-190" value="" style="sketch=0;outlineConnect=0;fontColor=#232F3E;gradientColor=none;fillColor=#FFFFFF;strokeColor=none;dashed=0;verticalLabelPosition=bottom;verticalAlign=top;align=center;html=1;fontSize=12;fontStyle=0;aspect=fixed;pointerEvents=1;shape=mxgraph.aws4.gear;rounded=1;" parent="1" vertex="1">
          <mxGeometry x="2387" y="221" width="17" height="17" as="geometry" />
        </mxCell>
        <mxCell id="KEMRwMlC_l3wsv7uTXtr-30" value="" style="rounded=1;whiteSpace=wrap;html=1;arcSize=5;fillColor=#f5f5f5;strokeColor=#1C57CD;strokeWidth=3;" vertex="1" parent="1">
          <mxGeometry x="1674.03" y="434.55" width="335.97" height="327" as="geometry" />
        </mxCell>
        <mxCell id="KEMRwMlC_l3wsv7uTXtr-31" value="&lt;span style=&quot;font-size: 23px;&quot;&gt;Тех поддержка&lt;/span&gt;" style="text;html=1;align=center;verticalAlign=middle;whiteSpace=wrap;rounded=1;fontSize=13;" vertex="1" parent="1">
          <mxGeometry x="1653.4776132930513" y="362.00097902097906" width="224.04833836858006" height="195.1048951048951" as="geometry" />
        </mxCell>
        <mxCell id="LR5BryFxUAawPIUA4l_Y-260" value="" style="group" parent="1" vertex="1" connectable="0">
          <mxGeometry x="1677.24" y="708.55" width="347.03999999999996" height="348.45" as="geometry" />
        </mxCell>
        <mxCell id="LR5BryFxUAawPIUA4l_Y-261" value="" style="rounded=1;whiteSpace=wrap;html=1;fillColor=#1C57CD;strokeColor=none;" parent="LR5BryFxUAawPIUA4l_Y-260" vertex="1">
          <mxGeometry width="309" height="39" as="geometry" />
        </mxCell>
        <mxCell id="LR5BryFxUAawPIUA4l_Y-262" value="" style="sketch=0;outlineConnect=0;fontColor=#232F3E;gradientColor=none;fillColor=#FFFFFF;strokeColor=none;dashed=0;verticalLabelPosition=bottom;verticalAlign=top;align=center;html=1;fontSize=12;fontStyle=0;aspect=fixed;pointerEvents=1;shape=mxgraph.aws4.gear;rounded=1;" parent="LR5BryFxUAawPIUA4l_Y-260" vertex="1">
          <mxGeometry x="280" y="11" width="17" height="17" as="geometry" />
        </mxCell>
        <mxCell id="LR5BryFxUAawPIUA4l_Y-263" value="Обновление статуса заявки" style="text;html=1;align=center;verticalAlign=middle;whiteSpace=wrap;rounded=1;fontSize=13;fontColor=#FFFFFF;strokeColor=none;" parent="LR5BryFxUAawPIUA4l_Y-260" vertex="1">
          <mxGeometry x="8" y="4" width="176" height="30" as="geometry" />
        </mxCell>
        <mxCell id="KEMRwMlC_l3wsv7uTXtr-34" value="" style="rounded=1;whiteSpace=wrap;html=1;arcSize=5;fillColor=#f5f5f5;strokeColor=#1C57CD;strokeWidth=3;" vertex="1" parent="LR5BryFxUAawPIUA4l_Y-260">
          <mxGeometry x="0.669999999999936" y="72.55" width="335.97" height="314.45" as="geometry" />
        </mxCell>
        <mxCell id="KEMRwMlC_l3wsv7uTXtr-35" value="&lt;span style=&quot;font-size: 23px;&quot;&gt;Статистика&lt;/span&gt;" style="text;html=1;align=center;verticalAlign=middle;whiteSpace=wrap;rounded=1;fontSize=13;" vertex="1" parent="LR5BryFxUAawPIUA4l_Y-260">
          <mxGeometry x="-27.64238670694899" y="0.0009790209790452309" width="224.04833836858006" height="195.1048951048951" as="geometry" />
        </mxCell>
        <mxCell id="LR5BryFxUAawPIUA4l_Y-256" value="" style="group" parent="LR5BryFxUAawPIUA4l_Y-260" vertex="1" connectable="0">
          <mxGeometry x="7.3599999999999905" y="127.00000000000006" width="309" height="39" as="geometry" />
        </mxCell>
        <mxCell id="LR5BryFxUAawPIUA4l_Y-257" value="" style="rounded=1;whiteSpace=wrap;html=1;fillColor=#1C57CD;strokeColor=none;" parent="LR5BryFxUAawPIUA4l_Y-256" vertex="1">
          <mxGeometry width="309" height="39" as="geometry" />
        </mxCell>
        <mxCell id="LR5BryFxUAawPIUA4l_Y-258" value="" style="sketch=0;outlineConnect=0;fontColor=#232F3E;gradientColor=none;fillColor=#FFFFFF;strokeColor=none;dashed=0;verticalLabelPosition=bottom;verticalAlign=top;align=center;html=1;fontSize=12;fontStyle=0;aspect=fixed;pointerEvents=1;shape=mxgraph.aws4.gear;rounded=1;" parent="LR5BryFxUAawPIUA4l_Y-256" vertex="1">
          <mxGeometry x="280" y="11" width="17" height="17" as="geometry" />
        </mxCell>
        <mxCell id="LR5BryFxUAawPIUA4l_Y-259" value="Сгенерировать отчёт активности пользователей" style="text;html=1;align=center;verticalAlign=middle;whiteSpace=wrap;rounded=1;fontSize=13;fontColor=#FFFFFF;strokeColor=none;" parent="LR5BryFxUAawPIUA4l_Y-256" vertex="1">
          <mxGeometry x="5" y="6" width="215" height="30" as="geometry" />
        </mxCell>
        <mxCell id="LR5BryFxUAawPIUA4l_Y-236" value="" style="group" parent="LR5BryFxUAawPIUA4l_Y-260" vertex="1" connectable="0">
          <mxGeometry x="7.3599999999999905" y="327.00000000000006" width="309" height="39" as="geometry" />
        </mxCell>
        <mxCell id="LR5BryFxUAawPIUA4l_Y-237" value="" style="rounded=1;whiteSpace=wrap;html=1;fillColor=#1C57CD;strokeColor=none;" parent="LR5BryFxUAawPIUA4l_Y-236" vertex="1">
          <mxGeometry width="309" height="39" as="geometry" />
        </mxCell>
        <mxCell id="LR5BryFxUAawPIUA4l_Y-238" value="" style="sketch=0;outlineConnect=0;fontColor=#232F3E;gradientColor=none;fillColor=#FFFFFF;strokeColor=none;dashed=0;verticalLabelPosition=bottom;verticalAlign=top;align=center;html=1;fontSize=12;fontStyle=0;aspect=fixed;pointerEvents=1;shape=mxgraph.aws4.gear;rounded=1;" parent="LR5BryFxUAawPIUA4l_Y-236" vertex="1">
          <mxGeometry x="286" y="11" width="17" height="17" as="geometry" />
        </mxCell>
        <mxCell id="LR5BryFxUAawPIUA4l_Y-239" value="Фильтрация и сортировка результатов" style="text;html=1;align=center;verticalAlign=middle;whiteSpace=wrap;rounded=1;fontSize=13;fontColor=#FFFFFF;strokeColor=none;" parent="LR5BryFxUAawPIUA4l_Y-236" vertex="1">
          <mxGeometry x="5" y="4.5" width="248" height="30" as="geometry" />
        </mxCell>
        <mxCell id="LR5BryFxUAawPIUA4l_Y-244" value="" style="group" parent="LR5BryFxUAawPIUA4l_Y-260" vertex="1" connectable="0">
          <mxGeometry x="7.3599999999999905" y="279.00000000000006" width="309" height="39" as="geometry" />
        </mxCell>
        <mxCell id="LR5BryFxUAawPIUA4l_Y-245" value="" style="rounded=1;whiteSpace=wrap;html=1;fillColor=#1C57CD;strokeColor=none;" parent="LR5BryFxUAawPIUA4l_Y-244" vertex="1">
          <mxGeometry width="309" height="39" as="geometry" />
        </mxCell>
        <mxCell id="LR5BryFxUAawPIUA4l_Y-246" value="" style="sketch=0;outlineConnect=0;fontColor=#232F3E;gradientColor=none;fillColor=#FFFFFF;strokeColor=none;dashed=0;verticalLabelPosition=bottom;verticalAlign=top;align=center;html=1;fontSize=12;fontStyle=0;aspect=fixed;pointerEvents=1;shape=mxgraph.aws4.gear;rounded=1;" parent="LR5BryFxUAawPIUA4l_Y-244" vertex="1">
          <mxGeometry x="286" y="11" width="17" height="17" as="geometry" />
        </mxCell>
        <mxCell id="LR5BryFxUAawPIUA4l_Y-247" value="Отобразить статистику заказов" style="text;html=1;align=center;verticalAlign=middle;whiteSpace=wrap;rounded=1;fontSize=13;fontColor=#FFFFFF;strokeColor=none;" parent="LR5BryFxUAawPIUA4l_Y-244" vertex="1">
          <mxGeometry x="6.5" y="4.5" width="202" height="30" as="geometry" />
        </mxCell>
        <mxCell id="LR5BryFxUAawPIUA4l_Y-240" value="" style="group" parent="LR5BryFxUAawPIUA4l_Y-260" vertex="1" connectable="0">
          <mxGeometry x="7.3599999999999905" y="229.00000000000006" width="309" height="39" as="geometry" />
        </mxCell>
        <mxCell id="LR5BryFxUAawPIUA4l_Y-241" value="" style="rounded=1;whiteSpace=wrap;html=1;fillColor=#1C57CD;strokeColor=none;" parent="LR5BryFxUAawPIUA4l_Y-240" vertex="1">
          <mxGeometry width="309" height="39" as="geometry" />
        </mxCell>
        <mxCell id="LR5BryFxUAawPIUA4l_Y-242" value="" style="sketch=0;outlineConnect=0;fontColor=#232F3E;gradientColor=none;fillColor=#FFFFFF;strokeColor=none;dashed=0;verticalLabelPosition=bottom;verticalAlign=top;align=center;html=1;fontSize=12;fontStyle=0;aspect=fixed;pointerEvents=1;shape=mxgraph.aws4.gear;rounded=1;" parent="LR5BryFxUAawPIUA4l_Y-240" vertex="1">
          <mxGeometry x="286" y="11" width="17" height="17" as="geometry" />
        </mxCell>
        <mxCell id="LR5BryFxUAawPIUA4l_Y-243" value="Сгенерировать отчёт по продажам" style="text;html=1;align=center;verticalAlign=middle;whiteSpace=wrap;rounded=1;fontSize=13;fontColor=#FFFFFF;strokeColor=none;" parent="LR5BryFxUAawPIUA4l_Y-240" vertex="1">
          <mxGeometry x="6" y="4.5" width="226" height="30" as="geometry" />
        </mxCell>
        <mxCell id="LR5BryFxUAawPIUA4l_Y-296" value="" style="group" parent="LR5BryFxUAawPIUA4l_Y-260" vertex="1" connectable="0">
          <mxGeometry x="7.3599999999999905" y="177.00000000000006" width="309" height="39" as="geometry" />
        </mxCell>
        <mxCell id="LR5BryFxUAawPIUA4l_Y-297" value="" style="rounded=1;whiteSpace=wrap;html=1;fillColor=#1C57CD;strokeColor=none;" parent="LR5BryFxUAawPIUA4l_Y-296" vertex="1">
          <mxGeometry width="309" height="39" as="geometry" />
        </mxCell>
        <mxCell id="LR5BryFxUAawPIUA4l_Y-298" value="" style="sketch=0;outlineConnect=0;fontColor=#232F3E;gradientColor=none;fillColor=#FFFFFF;strokeColor=none;dashed=0;verticalLabelPosition=bottom;verticalAlign=top;align=center;html=1;fontSize=12;fontStyle=0;aspect=fixed;pointerEvents=1;shape=mxgraph.aws4.gear;rounded=1;" parent="LR5BryFxUAawPIUA4l_Y-296" vertex="1">
          <mxGeometry x="280" y="11" width="17" height="17" as="geometry" />
        </mxCell>
        <mxCell id="LR5BryFxUAawPIUA4l_Y-299" value="Предоставить список и статус операций" style="text;html=1;align=center;verticalAlign=middle;whiteSpace=wrap;rounded=1;fontSize=13;fontColor=#FFFFFF;strokeColor=none;" parent="LR5BryFxUAawPIUA4l_Y-296" vertex="1">
          <mxGeometry y="4.5" width="263" height="30" as="geometry" />
        </mxCell>
        <mxCell id="LR5BryFxUAawPIUA4l_Y-264" value="" style="group" parent="1" vertex="1" connectable="0">
          <mxGeometry x="1677.24" y="663.55" width="309" height="39" as="geometry" />
        </mxCell>
        <mxCell id="LR5BryFxUAawPIUA4l_Y-265" value="" style="rounded=1;whiteSpace=wrap;html=1;fillColor=#1C57CD;strokeColor=none;" parent="LR5BryFxUAawPIUA4l_Y-264" vertex="1">
          <mxGeometry width="309" height="39" as="geometry" />
        </mxCell>
        <mxCell id="LR5BryFxUAawPIUA4l_Y-266" value="" style="sketch=0;outlineConnect=0;fontColor=#232F3E;gradientColor=none;fillColor=#FFFFFF;strokeColor=none;dashed=0;verticalLabelPosition=bottom;verticalAlign=top;align=center;html=1;fontSize=12;fontStyle=0;aspect=fixed;pointerEvents=1;shape=mxgraph.aws4.gear;rounded=1;" parent="LR5BryFxUAawPIUA4l_Y-264" vertex="1">
          <mxGeometry x="280" y="11" width="17" height="17" as="geometry" />
        </mxCell>
        <mxCell id="LR5BryFxUAawPIUA4l_Y-267" value="Регистрация заявки на техподдержку" style="text;html=1;align=center;verticalAlign=middle;whiteSpace=wrap;rounded=1;fontSize=13;fontColor=#FFFFFF;strokeColor=none;" parent="LR5BryFxUAawPIUA4l_Y-264" vertex="1">
          <mxGeometry x="4" y="4.5" width="249" height="30" as="geometry" />
        </mxCell>
        <mxCell id="LR5BryFxUAawPIUA4l_Y-268" value="" style="group" parent="1" vertex="1" connectable="0">
          <mxGeometry x="1677.24" y="617.55" width="309" height="39" as="geometry" />
        </mxCell>
        <mxCell id="LR5BryFxUAawPIUA4l_Y-269" value="" style="rounded=1;whiteSpace=wrap;html=1;fillColor=#1C57CD;strokeColor=none;" parent="LR5BryFxUAawPIUA4l_Y-268" vertex="1">
          <mxGeometry width="309" height="39" as="geometry" />
        </mxCell>
        <mxCell id="LR5BryFxUAawPIUA4l_Y-270" value="" style="sketch=0;outlineConnect=0;fontColor=#232F3E;gradientColor=none;fillColor=#FFFFFF;strokeColor=none;dashed=0;verticalLabelPosition=bottom;verticalAlign=top;align=center;html=1;fontSize=12;fontStyle=0;aspect=fixed;pointerEvents=1;shape=mxgraph.aws4.gear;rounded=1;" parent="LR5BryFxUAawPIUA4l_Y-268" vertex="1">
          <mxGeometry x="280" y="11" width="17" height="17" as="geometry" />
        </mxCell>
        <mxCell id="LR5BryFxUAawPIUA4l_Y-271" value="Создать заявку на техподдержку" style="text;html=1;align=center;verticalAlign=middle;whiteSpace=wrap;rounded=1;fontSize=13;fontColor=#FFFFFF;strokeColor=none;" parent="LR5BryFxUAawPIUA4l_Y-268" vertex="1">
          <mxGeometry y="4.5" width="230" height="30" as="geometry" />
        </mxCell>
        <mxCell id="LR5BryFxUAawPIUA4l_Y-272" value="" style="group" parent="1" vertex="1" connectable="0">
          <mxGeometry x="1677.24" y="573.55" width="309" height="39" as="geometry" />
        </mxCell>
        <mxCell id="LR5BryFxUAawPIUA4l_Y-273" value="" style="rounded=1;whiteSpace=wrap;html=1;fillColor=#1C57CD;strokeColor=none;" parent="LR5BryFxUAawPIUA4l_Y-272" vertex="1">
          <mxGeometry width="309" height="39" as="geometry" />
        </mxCell>
        <mxCell id="LR5BryFxUAawPIUA4l_Y-274" value="" style="sketch=0;outlineConnect=0;fontColor=#232F3E;gradientColor=none;fillColor=#FFFFFF;strokeColor=none;dashed=0;verticalLabelPosition=bottom;verticalAlign=top;align=center;html=1;fontSize=12;fontStyle=0;aspect=fixed;pointerEvents=1;shape=mxgraph.aws4.gear;rounded=1;" parent="LR5BryFxUAawPIUA4l_Y-272" vertex="1">
          <mxGeometry x="280" y="11" width="17" height="17" as="geometry" />
        </mxCell>
        <mxCell id="LR5BryFxUAawPIUA4l_Y-275" value="Обновить статус заявки на апелляцию" style="text;html=1;align=center;verticalAlign=middle;whiteSpace=wrap;rounded=1;fontSize=13;fontColor=#FFFFFF;strokeColor=none;" parent="LR5BryFxUAawPIUA4l_Y-272" vertex="1">
          <mxGeometry x="3" y="4.5" width="250" height="30" as="geometry" />
        </mxCell>
        <mxCell id="LR5BryFxUAawPIUA4l_Y-276" value="" style="group" parent="1" vertex="1" connectable="0">
          <mxGeometry x="1677.24" y="528.55" width="309" height="39" as="geometry" />
        </mxCell>
        <mxCell id="LR5BryFxUAawPIUA4l_Y-277" value="" style="rounded=1;whiteSpace=wrap;html=1;fillColor=#1C57CD;strokeColor=none;" parent="LR5BryFxUAawPIUA4l_Y-276" vertex="1">
          <mxGeometry width="309" height="39" as="geometry" />
        </mxCell>
        <mxCell id="LR5BryFxUAawPIUA4l_Y-278" value="" style="sketch=0;outlineConnect=0;fontColor=#232F3E;gradientColor=none;fillColor=#FFFFFF;strokeColor=none;dashed=0;verticalLabelPosition=bottom;verticalAlign=top;align=center;html=1;fontSize=12;fontStyle=0;aspect=fixed;pointerEvents=1;shape=mxgraph.aws4.gear;rounded=1;" parent="LR5BryFxUAawPIUA4l_Y-276" vertex="1">
          <mxGeometry x="280" y="11" width="17" height="17" as="geometry" />
        </mxCell>
        <mxCell id="LR5BryFxUAawPIUA4l_Y-279" value="Регистрация заявки на апелляцию" style="text;html=1;align=center;verticalAlign=middle;whiteSpace=wrap;rounded=1;fontSize=13;fontColor=#FFFFFF;strokeColor=none;" parent="LR5BryFxUAawPIUA4l_Y-276" vertex="1">
          <mxGeometry x="1" y="4.5" width="227" height="30" as="geometry" />
        </mxCell>
        <mxCell id="LR5BryFxUAawPIUA4l_Y-280" value="" style="group" parent="1" vertex="1" connectable="0">
          <mxGeometry x="1677.24" y="481.55" width="309" height="39" as="geometry" />
        </mxCell>
        <mxCell id="LR5BryFxUAawPIUA4l_Y-281" value="" style="rounded=1;whiteSpace=wrap;html=1;fillColor=#1C57CD;strokeColor=none;" parent="LR5BryFxUAawPIUA4l_Y-280" vertex="1">
          <mxGeometry width="309" height="39" as="geometry" />
        </mxCell>
        <mxCell id="LR5BryFxUAawPIUA4l_Y-282" value="" style="sketch=0;outlineConnect=0;fontColor=#232F3E;gradientColor=none;fillColor=#FFFFFF;strokeColor=none;dashed=0;verticalLabelPosition=bottom;verticalAlign=top;align=center;html=1;fontSize=12;fontStyle=0;aspect=fixed;pointerEvents=1;shape=mxgraph.aws4.gear;rounded=1;" parent="LR5BryFxUAawPIUA4l_Y-280" vertex="1">
          <mxGeometry x="280" y="11" width="17" height="17" as="geometry" />
        </mxCell>
        <mxCell id="LR5BryFxUAawPIUA4l_Y-283" value="Создать заявку на апелляцию&amp;nbsp;" style="text;html=1;align=center;verticalAlign=middle;whiteSpace=wrap;rounded=1;fontSize=13;fontColor=#FFFFFF;strokeColor=none;" parent="LR5BryFxUAawPIUA4l_Y-280" vertex="1">
          <mxGeometry x="4" y="4.5" width="202" height="30" as="geometry" />
        </mxCell>
        <mxCell id="KEMRwMlC_l3wsv7uTXtr-37" value="" style="rounded=1;whiteSpace=wrap;html=1;arcSize=5;fillColor=#f5f5f5;strokeColor=#1C57CD;strokeWidth=3;" vertex="1" parent="1">
          <mxGeometry x="3218.31" y="469.08" width="221.69" height="424" as="geometry" />
        </mxCell>
        <mxCell id="KEMRwMlC_l3wsv7uTXtr-38" value="&lt;span style=&quot;font-size: 23px;&quot;&gt;Пользователь&lt;/span&gt;" style="text;html=1;align=center;verticalAlign=middle;whiteSpace=wrap;rounded=1;fontSize=13;" vertex="1" parent="1">
          <mxGeometry x="3224.9" y="474.79999999999995" width="174.05" height="26.55" as="geometry" />
        </mxCell>
        <mxCell id="LR5BryFxUAawPIUA4l_Y-148" value="" style="group" parent="1" vertex="1" connectable="0">
          <mxGeometry x="1680" y="210" width="309" height="39" as="geometry" />
        </mxCell>
        <mxCell id="LR5BryFxUAawPIUA4l_Y-149" value="" style="rounded=1;whiteSpace=wrap;html=1;fillColor=#1C57CD;strokeColor=none;" parent="LR5BryFxUAawPIUA4l_Y-148" vertex="1">
          <mxGeometry width="309" height="39" as="geometry" />
        </mxCell>
        <mxCell id="LR5BryFxUAawPIUA4l_Y-150" value="" style="sketch=0;outlineConnect=0;fontColor=#232F3E;gradientColor=none;fillColor=default;strokeColor=none;dashed=0;verticalLabelPosition=bottom;verticalAlign=top;align=center;html=1;fontSize=12;fontStyle=0;aspect=fixed;pointerEvents=1;shape=mxgraph.aws4.gear;rounded=1;" parent="LR5BryFxUAawPIUA4l_Y-148" vertex="1">
          <mxGeometry x="282" y="11" width="17" height="17" as="geometry" />
        </mxCell>
        <mxCell id="LR5BryFxUAawPIUA4l_Y-151" value="Удалить услугу пользователя" style="text;html=1;align=center;verticalAlign=middle;whiteSpace=wrap;rounded=1;fontSize=13;fontColor=#FFFFFF;strokeColor=none;" parent="LR5BryFxUAawPIUA4l_Y-148" vertex="1">
          <mxGeometry x="3" y="4.5" width="189" height="30" as="geometry" />
        </mxCell>
        <mxCell id="LR5BryFxUAawPIUA4l_Y-196" value="" style="group" parent="1" vertex="1" connectable="0">
          <mxGeometry x="1680" y="307" width="309" height="39" as="geometry" />
        </mxCell>
        <mxCell id="LR5BryFxUAawPIUA4l_Y-197" value="" style="rounded=1;whiteSpace=wrap;html=1;fillColor=#1C57CD;strokeColor=none;" parent="LR5BryFxUAawPIUA4l_Y-196" vertex="1">
          <mxGeometry width="309" height="39" as="geometry" />
        </mxCell>
        <mxCell id="LR5BryFxUAawPIUA4l_Y-198" value="" style="sketch=0;outlineConnect=0;fontColor=#232F3E;gradientColor=none;fillColor=#FFFFFF;strokeColor=none;dashed=0;verticalLabelPosition=bottom;verticalAlign=top;align=center;html=1;fontSize=12;fontStyle=0;aspect=fixed;pointerEvents=1;shape=mxgraph.aws4.gear;rounded=1;" parent="LR5BryFxUAawPIUA4l_Y-196" vertex="1">
          <mxGeometry x="286" y="10" width="17" height="17" as="geometry" />
        </mxCell>
        <mxCell id="LR5BryFxUAawPIUA4l_Y-199" value="Добавить услугу в профиль пользователя" style="text;html=1;align=center;verticalAlign=middle;whiteSpace=wrap;rounded=1;fontSize=13;fontColor=#FFFFFF;strokeColor=none;" parent="LR5BryFxUAawPIUA4l_Y-196" vertex="1">
          <mxGeometry x="2" y="5" width="273" height="30" as="geometry" />
        </mxCell>
        <mxCell id="LR5BryFxUAawPIUA4l_Y-204" value="" style="group" parent="1" vertex="1" connectable="0">
          <mxGeometry x="1680" y="354" width="309" height="39" as="geometry" />
        </mxCell>
        <mxCell id="LR5BryFxUAawPIUA4l_Y-205" value="" style="rounded=1;whiteSpace=wrap;html=1;fillColor=#1C57CD;strokeColor=none;" parent="LR5BryFxUAawPIUA4l_Y-204" vertex="1">
          <mxGeometry width="309" height="39" as="geometry" />
        </mxCell>
        <mxCell id="LR5BryFxUAawPIUA4l_Y-206" value="" style="sketch=0;outlineConnect=0;fontColor=#232F3E;gradientColor=none;fillColor=#FFFFFF;strokeColor=none;dashed=0;verticalLabelPosition=bottom;verticalAlign=top;align=center;html=1;fontSize=12;fontStyle=0;aspect=fixed;pointerEvents=1;shape=mxgraph.aws4.gear;rounded=1;" parent="LR5BryFxUAawPIUA4l_Y-204" vertex="1">
          <mxGeometry x="286" y="11" width="17" height="17" as="geometry" />
        </mxCell>
        <mxCell id="LR5BryFxUAawPIUA4l_Y-207" value="Изменить услугу пользователя" style="text;html=1;align=center;verticalAlign=middle;whiteSpace=wrap;rounded=1;fontSize=13;fontColor=#FFFFFF;strokeColor=none;" parent="LR5BryFxUAawPIUA4l_Y-204" vertex="1">
          <mxGeometry x="4" y="4.5" width="195" height="30" as="geometry" />
        </mxCell>
        <mxCell id="LR5BryFxUAawPIUA4l_Y-232" value="" style="group" parent="1" vertex="1" connectable="0">
          <mxGeometry x="1680" y="259" width="309" height="39" as="geometry" />
        </mxCell>
        <mxCell id="LR5BryFxUAawPIUA4l_Y-233" value="" style="rounded=1;whiteSpace=wrap;html=1;fillColor=#1C57CD;strokeColor=none;" parent="LR5BryFxUAawPIUA4l_Y-232" vertex="1">
          <mxGeometry width="309" height="39" as="geometry" />
        </mxCell>
        <mxCell id="LR5BryFxUAawPIUA4l_Y-234" value="" style="sketch=0;outlineConnect=0;fontColor=#232F3E;gradientColor=none;fillColor=#FFFFFF;strokeColor=none;dashed=0;verticalLabelPosition=bottom;verticalAlign=top;align=center;html=1;fontSize=12;fontStyle=0;aspect=fixed;pointerEvents=1;shape=mxgraph.aws4.gear;rounded=1;" parent="LR5BryFxUAawPIUA4l_Y-232" vertex="1">
          <mxGeometry x="286" y="11" width="17" height="17" as="geometry" />
        </mxCell>
        <mxCell id="LR5BryFxUAawPIUA4l_Y-235" value="Поиск услуг" style="text;html=1;align=center;verticalAlign=middle;whiteSpace=wrap;rounded=1;fontSize=13;fontColor=#FFFFFF;strokeColor=none;" parent="LR5BryFxUAawPIUA4l_Y-232" vertex="1">
          <mxGeometry x="4" y="4" width="81" height="30" as="geometry" />
        </mxCell>
        <mxCell id="KEMRwMlC_l3wsv7uTXtr-40" value="" style="rounded=1;whiteSpace=wrap;html=1;arcSize=5;fillColor=#f5f5f5;strokeColor=#1C57CD;strokeWidth=3;" vertex="1" parent="1">
          <mxGeometry x="2030" y="169.55" width="340" height="240" as="geometry" />
        </mxCell>
        <mxCell id="KEMRwMlC_l3wsv7uTXtr-41" value="&lt;span style=&quot;font-size: 23px;&quot;&gt;Товар&lt;/span&gt;" style="text;html=1;align=center;verticalAlign=middle;whiteSpace=wrap;rounded=1;fontSize=13;" vertex="1" parent="1">
          <mxGeometry x="2038" y="180.4" width="69.02" height="25.11" as="geometry" />
        </mxCell>
        <mxCell id="KEMRwMlC_l3wsv7uTXtr-42" value="" style="rounded=1;whiteSpace=wrap;html=1;arcSize=5;fillColor=#f5f5f5;strokeColor=#1C57CD;strokeWidth=3;" vertex="1" parent="1">
          <mxGeometry x="2030" y="433.55" width="340" height="336.45" as="geometry" />
        </mxCell>
        <mxCell id="KEMRwMlC_l3wsv7uTXtr-43" value="&lt;span style=&quot;font-size: 23px;&quot;&gt;Аукцион&lt;/span&gt;" style="text;html=1;align=center;verticalAlign=middle;whiteSpace=wrap;rounded=1;fontSize=13;" vertex="1" parent="1">
          <mxGeometry x="2038" y="445" width="129.02" height="29.11" as="geometry" />
        </mxCell>
        <mxCell id="LR5BryFxUAawPIUA4l_Y-152" value="" style="group" parent="1" vertex="1" connectable="0">
          <mxGeometry x="2040" y="310" width="309" height="39" as="geometry" />
        </mxCell>
        <mxCell id="LR5BryFxUAawPIUA4l_Y-153" value="" style="rounded=1;whiteSpace=wrap;html=1;fillColor=#1C57CD;strokeColor=none;" parent="LR5BryFxUAawPIUA4l_Y-152" vertex="1">
          <mxGeometry width="309" height="39" as="geometry" />
        </mxCell>
        <mxCell id="LR5BryFxUAawPIUA4l_Y-154" value="" style="sketch=0;outlineConnect=0;fontColor=#232F3E;gradientColor=none;fillColor=default;strokeColor=none;dashed=0;verticalLabelPosition=bottom;verticalAlign=top;align=center;html=1;fontSize=12;fontStyle=0;aspect=fixed;pointerEvents=1;shape=mxgraph.aws4.gear;rounded=1;" parent="LR5BryFxUAawPIUA4l_Y-152" vertex="1">
          <mxGeometry x="282" y="11" width="17" height="17" as="geometry" />
        </mxCell>
        <mxCell id="LR5BryFxUAawPIUA4l_Y-155" value="Удалить товар пользователя" style="text;html=1;align=center;verticalAlign=middle;whiteSpace=wrap;rounded=1;fontSize=13;fontColor=#FFFFFF;strokeColor=none;" parent="LR5BryFxUAawPIUA4l_Y-152" vertex="1">
          <mxGeometry x="2" y="4.5" width="188" height="30" as="geometry" />
        </mxCell>
        <mxCell id="LR5BryFxUAawPIUA4l_Y-192" value="" style="group" parent="1" vertex="1" connectable="0">
          <mxGeometry x="2040" y="220" width="309" height="39" as="geometry" />
        </mxCell>
        <mxCell id="LR5BryFxUAawPIUA4l_Y-193" value="" style="rounded=1;whiteSpace=wrap;html=1;fillColor=#1C57CD;strokeColor=none;" parent="LR5BryFxUAawPIUA4l_Y-192" vertex="1">
          <mxGeometry width="309" height="39" as="geometry" />
        </mxCell>
        <mxCell id="LR5BryFxUAawPIUA4l_Y-194" value="" style="sketch=0;outlineConnect=0;fontColor=#232F3E;gradientColor=none;fillColor=#FFFFFF;strokeColor=none;dashed=0;verticalLabelPosition=bottom;verticalAlign=top;align=center;html=1;fontSize=12;fontStyle=0;aspect=fixed;pointerEvents=1;shape=mxgraph.aws4.gear;rounded=1;" parent="LR5BryFxUAawPIUA4l_Y-192" vertex="1">
          <mxGeometry x="286" y="11" width="17" height="17" as="geometry" />
        </mxCell>
        <mxCell id="LR5BryFxUAawPIUA4l_Y-195" value="Добавить товар в профиль пользователя" style="text;html=1;align=center;verticalAlign=middle;whiteSpace=wrap;rounded=1;fontSize=13;fontColor=#FFFFFF;strokeColor=none;" parent="LR5BryFxUAawPIUA4l_Y-192" vertex="1">
          <mxGeometry x="8" y="4" width="262" height="30" as="geometry" />
        </mxCell>
        <mxCell id="LR5BryFxUAawPIUA4l_Y-200" value="" style="group" parent="1" vertex="1" connectable="0">
          <mxGeometry x="2040" y="266" width="309" height="39" as="geometry" />
        </mxCell>
        <mxCell id="LR5BryFxUAawPIUA4l_Y-201" value="" style="rounded=1;whiteSpace=wrap;html=1;fillColor=#1C57CD;strokeColor=none;" parent="LR5BryFxUAawPIUA4l_Y-200" vertex="1">
          <mxGeometry width="309" height="39" as="geometry" />
        </mxCell>
        <mxCell id="LR5BryFxUAawPIUA4l_Y-202" value="" style="sketch=0;outlineConnect=0;fontColor=#232F3E;gradientColor=none;fillColor=#FFFFFF;strokeColor=none;dashed=0;verticalLabelPosition=bottom;verticalAlign=top;align=center;html=1;fontSize=12;fontStyle=0;aspect=fixed;pointerEvents=1;shape=mxgraph.aws4.gear;rounded=1;" parent="LR5BryFxUAawPIUA4l_Y-200" vertex="1">
          <mxGeometry x="286" y="11" width="17" height="17" as="geometry" />
        </mxCell>
        <mxCell id="LR5BryFxUAawPIUA4l_Y-203" value="Изменить товар пользователя" style="text;html=1;align=center;verticalAlign=middle;whiteSpace=wrap;rounded=1;fontSize=13;fontColor=#FFFFFF;strokeColor=none;" parent="LR5BryFxUAawPIUA4l_Y-200" vertex="1">
          <mxGeometry x="7" y="3" width="195" height="30" as="geometry" />
        </mxCell>
        <mxCell id="LR5BryFxUAawPIUA4l_Y-228" value="" style="group" parent="1" vertex="1" connectable="0">
          <mxGeometry x="2040" y="355" width="309" height="39" as="geometry" />
        </mxCell>
        <mxCell id="LR5BryFxUAawPIUA4l_Y-229" value="" style="rounded=1;whiteSpace=wrap;html=1;fillColor=#1C57CD;strokeColor=none;" parent="LR5BryFxUAawPIUA4l_Y-228" vertex="1">
          <mxGeometry width="309" height="39" as="geometry" />
        </mxCell>
        <mxCell id="LR5BryFxUAawPIUA4l_Y-230" value="" style="sketch=0;outlineConnect=0;fontColor=#232F3E;gradientColor=none;fillColor=#FFFFFF;strokeColor=none;dashed=0;verticalLabelPosition=bottom;verticalAlign=top;align=center;html=1;fontSize=12;fontStyle=0;aspect=fixed;pointerEvents=1;shape=mxgraph.aws4.gear;rounded=1;" parent="LR5BryFxUAawPIUA4l_Y-228" vertex="1">
          <mxGeometry x="286" y="11" width="17" height="17" as="geometry" />
        </mxCell>
        <mxCell id="LR5BryFxUAawPIUA4l_Y-231" value="Поиск товаров" style="text;html=1;align=center;verticalAlign=middle;whiteSpace=wrap;rounded=1;fontSize=13;fontColor=#FFFFFF;strokeColor=none;" parent="LR5BryFxUAawPIUA4l_Y-228" vertex="1">
          <mxGeometry x="3" y="4.5" width="99" height="30" as="geometry" />
        </mxCell>
        <mxCell id="LR5BryFxUAawPIUA4l_Y-208" value="" style="group" parent="1" vertex="1" connectable="0">
          <mxGeometry x="2040.5" y="480" width="309" height="39" as="geometry" />
        </mxCell>
        <mxCell id="LR5BryFxUAawPIUA4l_Y-209" value="" style="rounded=1;whiteSpace=wrap;html=1;fillColor=#1C57CD;strokeColor=none;" parent="LR5BryFxUAawPIUA4l_Y-208" vertex="1">
          <mxGeometry width="309" height="39" as="geometry" />
        </mxCell>
        <mxCell id="LR5BryFxUAawPIUA4l_Y-210" value="" style="sketch=0;outlineConnect=0;fontColor=#232F3E;gradientColor=none;fillColor=#FFFFFF;strokeColor=none;dashed=0;verticalLabelPosition=bottom;verticalAlign=top;align=center;html=1;fontSize=12;fontStyle=0;aspect=fixed;pointerEvents=1;shape=mxgraph.aws4.gear;rounded=1;" parent="LR5BryFxUAawPIUA4l_Y-208" vertex="1">
          <mxGeometry x="286" y="11" width="17" height="17" as="geometry" />
        </mxCell>
        <mxCell id="LR5BryFxUAawPIUA4l_Y-211" value="Создать аукцион" style="text;html=1;align=center;verticalAlign=middle;whiteSpace=wrap;rounded=1;fontSize=13;fontColor=#FFFFFF;strokeColor=none;" parent="LR5BryFxUAawPIUA4l_Y-208" vertex="1">
          <mxGeometry x="3" y="4.5" width="113" height="30" as="geometry" />
        </mxCell>
        <mxCell id="LR5BryFxUAawPIUA4l_Y-212" value="" style="group" parent="1" vertex="1" connectable="0">
          <mxGeometry x="2040" y="620" width="309" height="39" as="geometry" />
        </mxCell>
        <mxCell id="LR5BryFxUAawPIUA4l_Y-213" value="" style="rounded=1;whiteSpace=wrap;html=1;fillColor=#1C57CD;strokeColor=none;" parent="LR5BryFxUAawPIUA4l_Y-212" vertex="1">
          <mxGeometry width="309" height="39" as="geometry" />
        </mxCell>
        <mxCell id="LR5BryFxUAawPIUA4l_Y-214" value="" style="sketch=0;outlineConnect=0;fontColor=#232F3E;gradientColor=none;fillColor=#FFFFFF;strokeColor=none;dashed=0;verticalLabelPosition=bottom;verticalAlign=top;align=center;html=1;fontSize=12;fontStyle=0;aspect=fixed;pointerEvents=1;shape=mxgraph.aws4.gear;rounded=1;" parent="LR5BryFxUAawPIUA4l_Y-212" vertex="1">
          <mxGeometry x="286" y="11" width="17" height="17" as="geometry" />
        </mxCell>
        <mxCell id="LR5BryFxUAawPIUA4l_Y-215" value="Редактировать аукцион" style="text;html=1;align=center;verticalAlign=middle;whiteSpace=wrap;rounded=1;fontSize=13;fontColor=#FFFFFF;strokeColor=none;" parent="LR5BryFxUAawPIUA4l_Y-212" vertex="1">
          <mxGeometry x="3" y="4.5" width="160" height="30" as="geometry" />
        </mxCell>
        <mxCell id="LR5BryFxUAawPIUA4l_Y-216" value="" style="group" parent="1" vertex="1" connectable="0">
          <mxGeometry x="2040.5" y="670" width="309" height="39" as="geometry" />
        </mxCell>
        <mxCell id="LR5BryFxUAawPIUA4l_Y-217" value="" style="rounded=1;whiteSpace=wrap;html=1;fillColor=#1C57CD;strokeColor=none;" parent="LR5BryFxUAawPIUA4l_Y-216" vertex="1">
          <mxGeometry width="309" height="39" as="geometry" />
        </mxCell>
        <mxCell id="LR5BryFxUAawPIUA4l_Y-218" value="" style="sketch=0;outlineConnect=0;fontColor=#232F3E;gradientColor=none;fillColor=#FFFFFF;strokeColor=none;dashed=0;verticalLabelPosition=bottom;verticalAlign=top;align=center;html=1;fontSize=12;fontStyle=0;aspect=fixed;pointerEvents=1;shape=mxgraph.aws4.gear;rounded=1;" parent="LR5BryFxUAawPIUA4l_Y-216" vertex="1">
          <mxGeometry x="286" y="11" width="17" height="17" as="geometry" />
        </mxCell>
        <mxCell id="LR5BryFxUAawPIUA4l_Y-219" value="Обработать новую заявку на аукцион" style="text;html=1;align=center;verticalAlign=middle;whiteSpace=wrap;rounded=1;fontSize=13;fontColor=#FFFFFF;strokeColor=none;" parent="LR5BryFxUAawPIUA4l_Y-216" vertex="1">
          <mxGeometry x="3" y="4.5" width="241" height="30" as="geometry" />
        </mxCell>
        <mxCell id="LR5BryFxUAawPIUA4l_Y-220" value="" style="group" parent="1" vertex="1" connectable="0">
          <mxGeometry x="2040.5" y="718" width="309" height="39" as="geometry" />
        </mxCell>
        <mxCell id="LR5BryFxUAawPIUA4l_Y-221" value="" style="rounded=1;whiteSpace=wrap;html=1;fillColor=#1C57CD;strokeColor=none;" parent="LR5BryFxUAawPIUA4l_Y-220" vertex="1">
          <mxGeometry width="309" height="39" as="geometry" />
        </mxCell>
        <mxCell id="LR5BryFxUAawPIUA4l_Y-222" value="" style="sketch=0;outlineConnect=0;fontColor=#232F3E;gradientColor=none;fillColor=#FFFFFF;strokeColor=none;dashed=0;verticalLabelPosition=bottom;verticalAlign=top;align=center;html=1;fontSize=12;fontStyle=0;aspect=fixed;pointerEvents=1;shape=mxgraph.aws4.gear;rounded=1;" parent="LR5BryFxUAawPIUA4l_Y-220" vertex="1">
          <mxGeometry x="286" y="11" width="17" height="17" as="geometry" />
        </mxCell>
        <mxCell id="LR5BryFxUAawPIUA4l_Y-223" value="Обновление ставок аукциона" style="text;html=1;align=center;verticalAlign=middle;whiteSpace=wrap;rounded=1;fontSize=13;fontColor=#FFFFFF;strokeColor=none;" parent="LR5BryFxUAawPIUA4l_Y-220" vertex="1">
          <mxGeometry x="4" y="4.5" width="189" height="30" as="geometry" />
        </mxCell>
        <mxCell id="LR5BryFxUAawPIUA4l_Y-248" value="" style="group" parent="1" vertex="1" connectable="0">
          <mxGeometry x="2040" y="573" width="309" height="39" as="geometry" />
        </mxCell>
        <mxCell id="LR5BryFxUAawPIUA4l_Y-249" value="" style="rounded=1;whiteSpace=wrap;html=1;fillColor=#1C57CD;strokeColor=none;" parent="LR5BryFxUAawPIUA4l_Y-248" vertex="1">
          <mxGeometry width="309" height="39" as="geometry" />
        </mxCell>
        <mxCell id="LR5BryFxUAawPIUA4l_Y-250" value="" style="sketch=0;outlineConnect=0;fontColor=#232F3E;gradientColor=none;fillColor=#FFFFFF;strokeColor=none;dashed=0;verticalLabelPosition=bottom;verticalAlign=top;align=center;html=1;fontSize=12;fontStyle=0;aspect=fixed;pointerEvents=1;shape=mxgraph.aws4.gear;rounded=1;" parent="LR5BryFxUAawPIUA4l_Y-248" vertex="1">
          <mxGeometry x="280" y="11" width="17" height="17" as="geometry" />
        </mxCell>
        <mxCell id="LR5BryFxUAawPIUA4l_Y-251" value="Обновление статуса аукциона" style="text;html=1;align=center;verticalAlign=middle;whiteSpace=wrap;rounded=1;fontSize=13;fontColor=#FFFFFF;strokeColor=none;" parent="LR5BryFxUAawPIUA4l_Y-248" vertex="1">
          <mxGeometry y="4.5" width="202" height="30" as="geometry" />
        </mxCell>
        <mxCell id="LR5BryFxUAawPIUA4l_Y-252" value="" style="group" parent="1" vertex="1" connectable="0">
          <mxGeometry x="2040" y="527" width="309" height="39" as="geometry" />
        </mxCell>
        <mxCell id="LR5BryFxUAawPIUA4l_Y-253" value="" style="rounded=1;whiteSpace=wrap;html=1;fillColor=#1C57CD;strokeColor=none;" parent="LR5BryFxUAawPIUA4l_Y-252" vertex="1">
          <mxGeometry width="309" height="39" as="geometry" />
        </mxCell>
        <mxCell id="LR5BryFxUAawPIUA4l_Y-254" value="" style="sketch=0;outlineConnect=0;fontColor=#232F3E;gradientColor=none;fillColor=#FFFFFF;strokeColor=none;dashed=0;verticalLabelPosition=bottom;verticalAlign=top;align=center;html=1;fontSize=12;fontStyle=0;aspect=fixed;pointerEvents=1;shape=mxgraph.aws4.gear;rounded=1;" parent="LR5BryFxUAawPIUA4l_Y-252" vertex="1">
          <mxGeometry x="280" y="11" width="17" height="17" as="geometry" />
        </mxCell>
        <mxCell id="LR5BryFxUAawPIUA4l_Y-255" value="Обновление ставок аукциона" style="text;html=1;align=center;verticalAlign=middle;whiteSpace=wrap;rounded=1;fontSize=13;fontColor=#FFFFFF;strokeColor=none;" parent="LR5BryFxUAawPIUA4l_Y-252" vertex="1">
          <mxGeometry y="4.5" width="202" height="30" as="geometry" />
        </mxCell>
        <mxCell id="KEMRwMlC_l3wsv7uTXtr-28" value="" style="rounded=1;whiteSpace=wrap;html=1;arcSize=5;fillColor=#f5f5f5;strokeColor=#1C57CD;strokeWidth=3;" vertex="1" parent="1">
          <mxGeometry x="2030" y="780" width="340" height="207.45" as="geometry" />
        </mxCell>
        <mxCell id="KEMRwMlC_l3wsv7uTXtr-29" value="&lt;span style=&quot;font-size: 23px;&quot;&gt;Уведомления&lt;/span&gt;" style="text;html=1;align=center;verticalAlign=middle;whiteSpace=wrap;rounded=1;fontSize=13;" vertex="1" parent="1">
          <mxGeometry x="2045.97" y="780" width="157.82" height="40" as="geometry" />
        </mxCell>
        <mxCell id="LR5BryFxUAawPIUA4l_Y-140" value="" style="group" parent="1" vertex="1" connectable="0">
          <mxGeometry x="2045.97" y="827" width="304.03" height="39" as="geometry" />
        </mxCell>
        <mxCell id="LR5BryFxUAawPIUA4l_Y-141" value="" style="rounded=1;whiteSpace=wrap;html=1;fillColor=#1C57CD;strokeColor=none;" parent="LR5BryFxUAawPIUA4l_Y-140" vertex="1">
          <mxGeometry width="304.03" height="39" as="geometry" />
        </mxCell>
        <mxCell id="LR5BryFxUAawPIUA4l_Y-142" value="" style="sketch=0;outlineConnect=0;fontColor=#232F3E;gradientColor=none;fillColor=default;strokeColor=none;dashed=0;verticalLabelPosition=bottom;verticalAlign=top;align=center;html=1;fontSize=12;fontStyle=0;aspect=fixed;pointerEvents=1;shape=mxgraph.aws4.gear;rounded=1;" parent="LR5BryFxUAawPIUA4l_Y-140" vertex="1">
          <mxGeometry x="275.4964401294498" y="11" width="16.50485436893204" height="16.50485436893204" as="geometry" />
        </mxCell>
        <mxCell id="LR5BryFxUAawPIUA4l_Y-143" value="Нотификация нового пользователя" style="text;html=1;align=center;verticalAlign=middle;whiteSpace=wrap;rounded=1;fontSize=13;fontColor=#FFFFFF;strokeColor=none;" parent="LR5BryFxUAawPIUA4l_Y-140" vertex="1">
          <mxGeometry x="2.951747572815534" y="4.5" width="223.3488996763754" height="30" as="geometry" />
        </mxCell>
        <mxCell id="LR5BryFxUAawPIUA4l_Y-224" value="" style="group" parent="1" vertex="1" connectable="0">
          <mxGeometry x="2045.97" y="881" width="304.03" height="39" as="geometry" />
        </mxCell>
        <mxCell id="LR5BryFxUAawPIUA4l_Y-225" value="" style="rounded=1;whiteSpace=wrap;html=1;fillColor=#1C57CD;strokeColor=none;" parent="LR5BryFxUAawPIUA4l_Y-224" vertex="1">
          <mxGeometry width="304.03" height="39" as="geometry" />
        </mxCell>
        <mxCell id="LR5BryFxUAawPIUA4l_Y-226" value="" style="sketch=0;outlineConnect=0;fontColor=#232F3E;gradientColor=none;fillColor=#FFFFFF;strokeColor=none;dashed=0;verticalLabelPosition=bottom;verticalAlign=top;align=center;html=1;fontSize=12;fontStyle=0;aspect=fixed;pointerEvents=1;shape=mxgraph.aws4.gear;rounded=1;" parent="LR5BryFxUAawPIUA4l_Y-224" vertex="1">
          <mxGeometry x="281.39993527508085" y="11" width="16.50485436893204" height="16.50485436893204" as="geometry" />
        </mxCell>
        <mxCell id="LR5BryFxUAawPIUA4l_Y-227" value="Нотификация участника аукциона" style="text;html=1;align=center;verticalAlign=middle;whiteSpace=wrap;rounded=1;fontSize=13;fontColor=#FFFFFF;strokeColor=none;" parent="LR5BryFxUAawPIUA4l_Y-224" vertex="1">
          <mxGeometry x="2.951747572815534" y="4.5" width="214.49365695792878" height="30" as="geometry" />
        </mxCell>
        <mxCell id="LR5BryFxUAawPIUA4l_Y-184" value="" style="group" parent="1" vertex="1" connectable="0">
          <mxGeometry x="2045.97" y="931" width="309" height="39" as="geometry" />
        </mxCell>
        <mxCell id="LR5BryFxUAawPIUA4l_Y-185" value="" style="rounded=1;whiteSpace=wrap;html=1;fillColor=#1C57CD;strokeColor=none;" parent="LR5BryFxUAawPIUA4l_Y-184" vertex="1">
          <mxGeometry width="309" height="39" as="geometry" />
        </mxCell>
        <mxCell id="LR5BryFxUAawPIUA4l_Y-186" value="" style="sketch=0;outlineConnect=0;fontColor=#232F3E;gradientColor=none;fillColor=default;strokeColor=none;dashed=0;verticalLabelPosition=bottom;verticalAlign=top;align=center;html=1;fontSize=12;fontStyle=0;aspect=fixed;pointerEvents=1;shape=mxgraph.aws4.gear;rounded=1;" parent="LR5BryFxUAawPIUA4l_Y-184" vertex="1">
          <mxGeometry x="282" y="11" width="17" height="17" as="geometry" />
        </mxCell>
        <mxCell id="LR5BryFxUAawPIUA4l_Y-187" value="Нотификация об изменении состояния заказа" style="text;html=1;align=center;verticalAlign=middle;whiteSpace=wrap;rounded=1;fontSize=13;fontColor=#FFFFFF;strokeColor=none;" parent="LR5BryFxUAawPIUA4l_Y-184" vertex="1">
          <mxGeometry x="6" y="4.5" width="247" height="30" as="geometry" />
        </mxCell>
        <mxCell id="KEMRwMlC_l3wsv7uTXtr-44" value="" style="rounded=1;whiteSpace=wrap;html=1;arcSize=5;fillColor=#f5f5f5;strokeColor=#1C57CD;strokeWidth=3;" vertex="1" parent="1">
          <mxGeometry x="2387" y="169.55" width="340" height="390.45" as="geometry" />
        </mxCell>
        <mxCell id="KEMRwMlC_l3wsv7uTXtr-45" value="&lt;span style=&quot;font-size: 23px;&quot;&gt;Заказ&lt;/span&gt;" style="text;html=1;align=center;verticalAlign=middle;whiteSpace=wrap;rounded=1;fontSize=13;" vertex="1" parent="1">
          <mxGeometry x="2395" y="180.4" width="69.02" height="25.11" as="geometry" />
        </mxCell>
        <mxCell id="LR5BryFxUAawPIUA4l_Y-156" value="" style="group" parent="1" vertex="1" connectable="0">
          <mxGeometry x="2400" y="210" width="309" height="39" as="geometry" />
        </mxCell>
        <mxCell id="LR5BryFxUAawPIUA4l_Y-157" value="" style="rounded=1;whiteSpace=wrap;html=1;fillColor=#1C57CD;strokeColor=none;" parent="LR5BryFxUAawPIUA4l_Y-156" vertex="1">
          <mxGeometry width="309" height="39" as="geometry" />
        </mxCell>
        <mxCell id="LR5BryFxUAawPIUA4l_Y-158" value="" style="sketch=0;outlineConnect=0;fontColor=#232F3E;gradientColor=none;fillColor=default;strokeColor=none;dashed=0;verticalLabelPosition=bottom;verticalAlign=top;align=center;html=1;fontSize=12;fontStyle=0;aspect=fixed;pointerEvents=1;shape=mxgraph.aws4.gear;rounded=1;" parent="LR5BryFxUAawPIUA4l_Y-156" vertex="1">
          <mxGeometry x="282" y="11" width="17" height="17" as="geometry" />
        </mxCell>
        <mxCell id="LR5BryFxUAawPIUA4l_Y-159" value="Создание заказа" style="text;html=1;align=center;verticalAlign=middle;whiteSpace=wrap;rounded=1;fontSize=13;fontColor=#FFFFFF;strokeColor=none;" parent="LR5BryFxUAawPIUA4l_Y-156" vertex="1">
          <mxGeometry x="5" y="4.5" width="110" height="30" as="geometry" />
        </mxCell>
        <mxCell id="LR5BryFxUAawPIUA4l_Y-160" value="" style="group" parent="1" vertex="1" connectable="0">
          <mxGeometry x="2400" y="258" width="309" height="39" as="geometry" />
        </mxCell>
        <mxCell id="LR5BryFxUAawPIUA4l_Y-161" value="" style="rounded=1;whiteSpace=wrap;html=1;fillColor=#1C57CD;strokeColor=none;" parent="LR5BryFxUAawPIUA4l_Y-160" vertex="1">
          <mxGeometry width="309" height="39" as="geometry" />
        </mxCell>
        <mxCell id="LR5BryFxUAawPIUA4l_Y-162" value="" style="sketch=0;outlineConnect=0;fontColor=#232F3E;gradientColor=none;fillColor=default;strokeColor=none;dashed=0;verticalLabelPosition=bottom;verticalAlign=top;align=center;html=1;fontSize=12;fontStyle=0;aspect=fixed;pointerEvents=1;shape=mxgraph.aws4.gear;rounded=1;" parent="LR5BryFxUAawPIUA4l_Y-160" vertex="1">
          <mxGeometry x="282" y="11" width="17" height="17" as="geometry" />
        </mxCell>
        <mxCell id="LR5BryFxUAawPIUA4l_Y-163" value="Редактирование заказа" style="text;html=1;align=center;verticalAlign=middle;whiteSpace=wrap;rounded=1;fontSize=13;fontColor=#FFFFFF;strokeColor=none;" parent="LR5BryFxUAawPIUA4l_Y-160" vertex="1">
          <mxGeometry x="3" y="4.5" width="154" height="30" as="geometry" />
        </mxCell>
        <mxCell id="LR5BryFxUAawPIUA4l_Y-164" value="" style="group" parent="1" vertex="1" connectable="0">
          <mxGeometry x="2400" y="306" width="309" height="39" as="geometry" />
        </mxCell>
        <mxCell id="LR5BryFxUAawPIUA4l_Y-165" value="" style="rounded=1;whiteSpace=wrap;html=1;fillColor=#1C57CD;strokeColor=none;" parent="LR5BryFxUAawPIUA4l_Y-164" vertex="1">
          <mxGeometry width="309" height="39" as="geometry" />
        </mxCell>
        <mxCell id="LR5BryFxUAawPIUA4l_Y-166" value="" style="sketch=0;outlineConnect=0;fontColor=#232F3E;gradientColor=none;fillColor=default;strokeColor=none;dashed=0;verticalLabelPosition=bottom;verticalAlign=top;align=center;html=1;fontSize=12;fontStyle=0;aspect=fixed;pointerEvents=1;shape=mxgraph.aws4.gear;rounded=1;" parent="LR5BryFxUAawPIUA4l_Y-164" vertex="1">
          <mxGeometry x="282" y="11" width="17" height="17" as="geometry" />
        </mxCell>
        <mxCell id="LR5BryFxUAawPIUA4l_Y-167" value="Сохранение заказа" style="text;html=1;align=center;verticalAlign=middle;whiteSpace=wrap;rounded=1;fontSize=13;fontColor=#FFFFFF;strokeColor=none;" parent="LR5BryFxUAawPIUA4l_Y-164" vertex="1">
          <mxGeometry x="4" y="4" width="126" height="30" as="geometry" />
        </mxCell>
        <mxCell id="LR5BryFxUAawPIUA4l_Y-168" value="" style="group" parent="1" vertex="1" connectable="0">
          <mxGeometry x="2400" y="355" width="309" height="39" as="geometry" />
        </mxCell>
        <mxCell id="LR5BryFxUAawPIUA4l_Y-169" value="" style="rounded=1;whiteSpace=wrap;html=1;fillColor=#1C57CD;strokeColor=none;" parent="LR5BryFxUAawPIUA4l_Y-168" vertex="1">
          <mxGeometry width="309" height="39" as="geometry" />
        </mxCell>
        <mxCell id="LR5BryFxUAawPIUA4l_Y-170" value="" style="sketch=0;outlineConnect=0;fontColor=#232F3E;gradientColor=none;fillColor=default;strokeColor=none;dashed=0;verticalLabelPosition=bottom;verticalAlign=top;align=center;html=1;fontSize=12;fontStyle=0;aspect=fixed;pointerEvents=1;shape=mxgraph.aws4.gear;rounded=1;" parent="LR5BryFxUAawPIUA4l_Y-168" vertex="1">
          <mxGeometry x="281.5" y="11" width="17" height="17" as="geometry" />
        </mxCell>
        <mxCell id="LR5BryFxUAawPIUA4l_Y-171" value="Подтверждение заказа" style="text;html=1;align=center;verticalAlign=middle;whiteSpace=wrap;rounded=1;fontSize=13;fontColor=#FFFFFF;strokeColor=none;" parent="LR5BryFxUAawPIUA4l_Y-168" vertex="1">
          <mxGeometry x="4" y="4.5" width="152" height="30" as="geometry" />
        </mxCell>
        <mxCell id="LR5BryFxUAawPIUA4l_Y-172" value="" style="group" parent="1" vertex="1" connectable="0">
          <mxGeometry x="2400" y="403" width="309" height="39" as="geometry" />
        </mxCell>
        <mxCell id="LR5BryFxUAawPIUA4l_Y-173" value="" style="rounded=1;whiteSpace=wrap;html=1;fillColor=#1C57CD;strokeColor=none;" parent="LR5BryFxUAawPIUA4l_Y-172" vertex="1">
          <mxGeometry width="309" height="39" as="geometry" />
        </mxCell>
        <mxCell id="LR5BryFxUAawPIUA4l_Y-174" value="" style="sketch=0;outlineConnect=0;fontColor=#232F3E;gradientColor=none;fillColor=default;strokeColor=none;dashed=0;verticalLabelPosition=bottom;verticalAlign=top;align=center;html=1;fontSize=12;fontStyle=0;aspect=fixed;pointerEvents=1;shape=mxgraph.aws4.gear;rounded=1;" parent="LR5BryFxUAawPIUA4l_Y-172" vertex="1">
          <mxGeometry x="281.5" y="11" width="17" height="17" as="geometry" />
        </mxCell>
        <mxCell id="LR5BryFxUAawPIUA4l_Y-175" value="Размещение заказа" style="text;html=1;align=center;verticalAlign=middle;whiteSpace=wrap;rounded=1;fontSize=13;fontColor=#FFFFFF;strokeColor=none;" parent="LR5BryFxUAawPIUA4l_Y-172" vertex="1">
          <mxGeometry x="3" y="4.5" width="130.5" height="30" as="geometry" />
        </mxCell>
        <mxCell id="LR5BryFxUAawPIUA4l_Y-176" value="" style="group" parent="1" vertex="1" connectable="0">
          <mxGeometry x="2400" y="452" width="309" height="39" as="geometry" />
        </mxCell>
        <mxCell id="LR5BryFxUAawPIUA4l_Y-177" value="" style="rounded=1;whiteSpace=wrap;html=1;fillColor=#1C57CD;strokeColor=none;" parent="LR5BryFxUAawPIUA4l_Y-176" vertex="1">
          <mxGeometry width="309" height="39" as="geometry" />
        </mxCell>
        <mxCell id="LR5BryFxUAawPIUA4l_Y-178" value="" style="sketch=0;outlineConnect=0;fontColor=#232F3E;gradientColor=none;fillColor=default;strokeColor=none;dashed=0;verticalLabelPosition=bottom;verticalAlign=top;align=center;html=1;fontSize=12;fontStyle=0;aspect=fixed;pointerEvents=1;shape=mxgraph.aws4.gear;rounded=1;" parent="LR5BryFxUAawPIUA4l_Y-176" vertex="1">
          <mxGeometry x="281.5" y="11" width="17" height="17" as="geometry" />
        </mxCell>
        <mxCell id="LR5BryFxUAawPIUA4l_Y-179" value="Отобразить все заказы" style="text;html=1;align=center;verticalAlign=middle;whiteSpace=wrap;rounded=1;fontSize=13;fontColor=#FFFFFF;strokeColor=none;" parent="LR5BryFxUAawPIUA4l_Y-176" vertex="1">
          <mxGeometry x="3" y="4.5" width="152" height="30" as="geometry" />
        </mxCell>
        <mxCell id="LR5BryFxUAawPIUA4l_Y-180" value="" style="group" parent="1" vertex="1" connectable="0">
          <mxGeometry x="2400" y="502" width="309" height="39" as="geometry" />
        </mxCell>
        <mxCell id="LR5BryFxUAawPIUA4l_Y-181" value="" style="rounded=1;whiteSpace=wrap;html=1;fillColor=#1C57CD;strokeColor=none;" parent="LR5BryFxUAawPIUA4l_Y-180" vertex="1">
          <mxGeometry width="309" height="39" as="geometry" />
        </mxCell>
        <mxCell id="LR5BryFxUAawPIUA4l_Y-182" value="" style="sketch=0;outlineConnect=0;fontColor=#232F3E;gradientColor=none;fillColor=default;strokeColor=none;dashed=0;verticalLabelPosition=bottom;verticalAlign=top;align=center;html=1;fontSize=12;fontStyle=0;aspect=fixed;pointerEvents=1;shape=mxgraph.aws4.gear;rounded=1;" parent="LR5BryFxUAawPIUA4l_Y-180" vertex="1">
          <mxGeometry x="282" y="11" width="17" height="17" as="geometry" />
        </mxCell>
        <mxCell id="LR5BryFxUAawPIUA4l_Y-183" value="Отобразить детали заказа" style="text;html=1;align=center;verticalAlign=middle;whiteSpace=wrap;rounded=1;fontSize=13;fontColor=#FFFFFF;strokeColor=none;" parent="LR5BryFxUAawPIUA4l_Y-180" vertex="1">
          <mxGeometry x="5" y="5" width="169" height="30" as="geometry" />
        </mxCell>
        <mxCell id="LR5BryFxUAawPIUA4l_Y-23" value="&lt;p style=&quot;margin: 0px 0px 0px 13px; text-indent: -13px; font-variant-numeric: normal; font-variant-east-asian: normal; font-variant-alternates: normal; font-kerning: auto; font-optical-sizing: auto; font-feature-settings: normal; font-variation-settings: normal; font-variant-position: normal; font-stretch: normal; line-height: normal; color: rgb(14, 14, 14); text-align: start;&quot; class=&quot;p1&quot;&gt;&lt;font style=&quot;font-size: 14px;&quot; face=&quot;Times New Roman&quot;&gt;Заявка на регистрацию&lt;/font&gt;&lt;/p&gt;" style="rounded=1;whiteSpace=wrap;html=1;fillColor=#b1ddf0;strokeColor=#10739e;" parent="1" vertex="1">
          <mxGeometry x="3224.9" y="576.33" width="150" height="21" as="geometry" />
        </mxCell>
        <mxCell id="LR5BryFxUAawPIUA4l_Y-24" value="&lt;p style=&quot;margin: 0px 0px 0px 13px; text-indent: -13px; font-variant-numeric: normal; font-variant-east-asian: normal; font-variant-alternates: normal; font-kerning: auto; font-optical-sizing: auto; font-feature-settings: normal; font-variation-settings: normal; font-variant-position: normal; font-stretch: normal; line-height: normal; color: rgb(14, 14, 14); text-align: start;&quot; class=&quot;p1&quot;&gt;&lt;font face=&quot;Times New Roman&quot;&gt;&lt;span style=&quot;font-size: 14px;&quot;&gt;JWT&lt;/span&gt;&lt;/font&gt;&lt;/p&gt;" style="rounded=1;whiteSpace=wrap;html=1;fillColor=#b1ddf0;strokeColor=#10739e;" parent="1" vertex="1">
          <mxGeometry x="3224.9" y="606.33" width="49" height="21" as="geometry" />
        </mxCell>
        <mxCell id="LR5BryFxUAawPIUA4l_Y-25" value="&lt;p style=&quot;margin: 0px 0px 0px 13px; text-indent: -13px; font-variant-numeric: normal; font-variant-east-asian: normal; font-variant-alternates: normal; font-kerning: auto; font-optical-sizing: auto; font-feature-settings: normal; font-variation-settings: normal; font-variant-position: normal; font-stretch: normal; font-size: 14px; line-height: normal; color: rgb(14, 14, 14); text-align: start;&quot; class=&quot;p1&quot;&gt;&lt;font face=&quot;Times New Roman&quot;&gt;Пользователь.Роль&lt;/font&gt;&lt;/p&gt;" style="rounded=1;whiteSpace=wrap;html=1;fillColor=#b1ddf0;strokeColor=#10739e;" parent="1" vertex="1">
          <mxGeometry x="3224.9" y="666.33" width="151" height="21" as="geometry" />
        </mxCell>
        <mxCell id="LR5BryFxUAawPIUA4l_Y-26" value="&lt;p style=&quot;margin: 0px 0px 0px 13px; text-indent: -13px; font-variant-numeric: normal; font-variant-east-asian: normal; font-variant-alternates: normal; font-kerning: auto; font-optical-sizing: auto; font-feature-settings: normal; font-variation-settings: normal; font-variant-position: normal; font-stretch: normal; font-size: 14px; line-height: normal; color: rgb(14, 14, 14); text-align: start;&quot; class=&quot;p1&quot;&gt;&lt;font face=&quot;Times New Roman&quot;&gt;Пользователь.ID&lt;/font&gt;&lt;/p&gt;" style="rounded=1;whiteSpace=wrap;html=1;fillColor=#b1ddf0;strokeColor=#10739e;" parent="1" vertex="1">
          <mxGeometry x="3224.9" y="696.33" width="151" height="21" as="geometry" />
        </mxCell>
        <mxCell id="LR5BryFxUAawPIUA4l_Y-27" value="&lt;p style=&quot;margin: 0px 0px 0px 13px; text-indent: -13px; font-variant-numeric: normal; font-variant-east-asian: normal; font-variant-alternates: normal; font-kerning: auto; font-optical-sizing: auto; font-feature-settings: normal; font-variation-settings: normal; font-variant-position: normal; font-stretch: normal; font-size: 14px; line-height: normal; color: rgb(14, 14, 14); text-align: start;&quot; class=&quot;p1&quot;&gt;&lt;font face=&quot;Times New Roman&quot;&gt;Пользователь.Имя&lt;/font&gt;&lt;/p&gt;" style="rounded=1;whiteSpace=wrap;html=1;fillColor=#b1ddf0;strokeColor=#10739e;" parent="1" vertex="1">
          <mxGeometry x="3224.9" y="515.33" width="119" height="21" as="geometry" />
        </mxCell>
        <mxCell id="LR5BryFxUAawPIUA4l_Y-28" value="&lt;p style=&quot;margin: 0px 0px 0px 13px; text-indent: -13px; font-variant-numeric: normal; font-variant-east-asian: normal; font-variant-alternates: normal; font-kerning: auto; font-optical-sizing: auto; font-feature-settings: normal; font-variation-settings: normal; font-variant-position: normal; font-stretch: normal; font-size: 14px; line-height: normal; color: rgb(14, 14, 14); text-align: start;&quot; class=&quot;p1&quot;&gt;&lt;font face=&quot;Times New Roman&quot;&gt;Пользователь.Фамилия&lt;/font&gt;&lt;/p&gt;" style="rounded=1;whiteSpace=wrap;html=1;fillColor=#b1ddf0;strokeColor=#10739e;" parent="1" vertex="1">
          <mxGeometry x="3224.4" y="726.33" width="151" height="21" as="geometry" />
        </mxCell>
        <mxCell id="LR5BryFxUAawPIUA4l_Y-29" value="&lt;p style=&quot;margin: 0px 0px 0px 13px; text-indent: -13px; font-variant-numeric: normal; font-variant-east-asian: normal; font-variant-alternates: normal; font-kerning: auto; font-optical-sizing: auto; font-feature-settings: normal; font-variation-settings: normal; font-variant-position: normal; font-stretch: normal; font-size: 14px; line-height: normal; color: rgb(14, 14, 14); text-align: start;&quot; class=&quot;p1&quot;&gt;&lt;font face=&quot;Times New Roman&quot;&gt;Пользователь.Адрес&lt;/font&gt;&lt;/p&gt;" style="rounded=1;whiteSpace=wrap;html=1;fillColor=#b1ddf0;strokeColor=#10739e;" parent="1" vertex="1">
          <mxGeometry x="3224.9" y="756.33" width="130" height="21" as="geometry" />
        </mxCell>
        <mxCell id="LR5BryFxUAawPIUA4l_Y-30" value="&lt;p style=&quot;margin: 0px 0px 0px 13px; text-indent: -13px; font-variant-numeric: normal; font-variant-east-asian: normal; font-variant-alternates: normal; font-kerning: auto; font-optical-sizing: auto; font-feature-settings: normal; font-variation-settings: normal; font-variant-position: normal; font-stretch: normal; font-size: 14px; line-height: normal; color: rgb(14, 14, 14); text-align: start;&quot; class=&quot;p1&quot;&gt;&lt;font face=&quot;Times New Roman&quot;&gt;Пользователь.Дата регистрации&lt;/font&gt;&lt;/p&gt;" style="rounded=1;whiteSpace=wrap;html=1;fillColor=#b1ddf0;strokeColor=#10739e;" parent="1" vertex="1">
          <mxGeometry x="3224.9" y="546.33" width="199" height="21" as="geometry" />
        </mxCell>
        <mxCell id="LR5BryFxUAawPIUA4l_Y-31" value="&lt;p style=&quot;margin: 0px 0px 0px 13px; text-indent: -13px; font-variant-numeric: normal; font-variant-east-asian: normal; font-variant-alternates: normal; font-kerning: auto; font-optical-sizing: auto; font-feature-settings: normal; font-variation-settings: normal; font-variant-position: normal; font-stretch: normal; font-size: 14px; line-height: normal; color: rgb(14, 14, 14); text-align: start;&quot; class=&quot;p1&quot;&gt;&lt;font face=&quot;Times New Roman&quot;&gt;Пользователь.Статус&lt;/font&gt;&lt;/p&gt;" style="rounded=1;whiteSpace=wrap;html=1;fillColor=#b1ddf0;strokeColor=#10739e;" parent="1" vertex="1">
          <mxGeometry x="3224.4" y="787.33" width="136" height="21" as="geometry" />
        </mxCell>
        <mxCell id="LR5BryFxUAawPIUA4l_Y-32" value="&lt;p style=&quot;margin: 0px 0px 0px 13px; text-indent: -13px; font-variant-numeric: normal; font-variant-east-asian: normal; font-variant-alternates: normal; font-kerning: auto; font-optical-sizing: auto; font-feature-settings: normal; font-variation-settings: normal; font-variant-position: normal; font-stretch: normal; font-size: 14px; line-height: normal; color: rgb(14, 14, 14); text-align: start;&quot; class=&quot;p1&quot;&gt;&lt;font face=&quot;Times New Roman&quot;&gt;Пользователь.Электронная почта&lt;/font&gt;&lt;/p&gt;" style="rounded=1;whiteSpace=wrap;html=1;fillColor=#b1ddf0;strokeColor=#10739e;" parent="1" vertex="1">
          <mxGeometry x="3224.9" y="848.08" width="209" height="21" as="geometry" />
        </mxCell>
        <mxCell id="LR5BryFxUAawPIUA4l_Y-33" value="&lt;p style=&quot;margin: 0px 0px 0px 13px; text-indent: -13px; font-variant-numeric: normal; font-variant-east-asian: normal; font-variant-alternates: normal; font-kerning: auto; font-optical-sizing: auto; font-feature-settings: normal; font-variation-settings: normal; font-variant-position: normal; font-stretch: normal; font-size: 14px; line-height: normal; color: rgb(14, 14, 14); text-align: start;&quot; class=&quot;p1&quot;&gt;&lt;font face=&quot;Times New Roman&quot;&gt;Пользователь.Номер телефона&lt;/font&gt;&lt;/p&gt;" style="rounded=1;whiteSpace=wrap;html=1;fillColor=#b1ddf0;strokeColor=#10739e;" parent="1" vertex="1">
          <mxGeometry x="3224.4" y="817.33" width="190" height="21" as="geometry" />
        </mxCell>
        <mxCell id="LR5BryFxUAawPIUA4l_Y-36" value="&lt;p style=&quot;margin: 0px 0px 0px 13px; text-indent: -13px; font-variant-numeric: normal; font-variant-east-asian: normal; font-variant-alternates: normal; font-kerning: auto; font-optical-sizing: auto; font-feature-settings: normal; font-variation-settings: normal; font-variant-position: normal; font-stretch: normal; font-size: 14px; line-height: normal; color: rgb(14, 14, 14); text-align: start;&quot; class=&quot;p1&quot;&gt;&lt;font face=&quot;Times New Roman&quot;&gt;Пользователь.Активен&lt;/font&gt;&lt;/p&gt;" style="rounded=1;whiteSpace=wrap;html=1;fillColor=#b1ddf0;strokeColor=#10739e;" parent="1" vertex="1">
          <mxGeometry x="3224.9" y="636.33" width="147" height="21" as="geometry" />
        </mxCell>
        <mxCell id="KEMRwMlC_l3wsv7uTXtr-46" value="" style="rounded=1;whiteSpace=wrap;html=1;arcSize=5;fillColor=#f5f5f5;strokeColor=#1C57CD;strokeWidth=3;" vertex="1" parent="1">
          <mxGeometry x="3560" y="469.08" width="221.69" height="74" as="geometry" />
        </mxCell>
        <mxCell id="KEMRwMlC_l3wsv7uTXtr-47" value="&lt;span style=&quot;font-size: 23px;&quot;&gt;Аукцион&lt;/span&gt;" style="text;html=1;align=center;verticalAlign=middle;whiteSpace=wrap;rounded=1;fontSize=13;" vertex="1" parent="1">
          <mxGeometry x="3566.59" y="474.79999999999995" width="174.05" height="26.55" as="geometry" />
        </mxCell>
        <mxCell id="LR5BryFxUAawPIUA4l_Y-22" value="&lt;p style=&quot;margin: 0px 0px 0px 13px; text-indent: -13px; font-variant-numeric: normal; font-variant-east-asian: normal; font-variant-alternates: normal; font-kerning: auto; font-optical-sizing: auto; font-feature-settings: normal; font-variation-settings: normal; font-variant-position: normal; font-stretch: normal; font-size: 14px; line-height: normal; color: rgb(14, 14, 14); text-align: start;&quot; class=&quot;p1&quot;&gt;&lt;font face=&quot;Times New Roman&quot;&gt;Заявка на аукцион.ID&lt;/font&gt;&lt;/p&gt;" style="rounded=1;whiteSpace=wrap;html=1;fillColor=#b1ddf0;strokeColor=#10739e;" parent="1" vertex="1">
          <mxGeometry x="3566.59" y="510.63" width="151" height="21" as="geometry" />
        </mxCell>
        <mxCell id="KEMRwMlC_l3wsv7uTXtr-50" value="" style="rounded=1;whiteSpace=wrap;html=1;arcSize=5;fillColor=#f5f5f5;strokeColor=#1C57CD;strokeWidth=3;" vertex="1" parent="1">
          <mxGeometry x="3560" y="557.33" width="221.69" height="119" as="geometry" />
        </mxCell>
        <mxCell id="KEMRwMlC_l3wsv7uTXtr-51" value="&lt;span style=&quot;font-size: 23px;&quot;&gt;Услуга&lt;/span&gt;" style="text;html=1;align=center;verticalAlign=middle;whiteSpace=wrap;rounded=1;fontSize=13;" vertex="1" parent="1">
          <mxGeometry x="3566.59" y="559.7800000000001" width="100.64" height="26.55" as="geometry" />
        </mxCell>
        <mxCell id="KEMRwMlC_l3wsv7uTXtr-52" value="" style="rounded=1;whiteSpace=wrap;html=1;arcSize=5;fillColor=#f5f5f5;strokeColor=#1C57CD;strokeWidth=3;" vertex="1" parent="1">
          <mxGeometry x="3560" y="696.33" width="221.69" height="136.75" as="geometry" />
        </mxCell>
        <mxCell id="KEMRwMlC_l3wsv7uTXtr-53" value="&lt;span style=&quot;font-size: 23px;&quot;&gt;Товар&lt;/span&gt;" style="text;html=1;align=center;verticalAlign=middle;whiteSpace=wrap;rounded=1;fontSize=13;" vertex="1" parent="1">
          <mxGeometry x="3566.59" y="706.33" width="80.64" height="26.55" as="geometry" />
        </mxCell>
        <mxCell id="KEMRwMlC_l3wsv7uTXtr-54" value="" style="rounded=1;whiteSpace=wrap;html=1;arcSize=5;fillColor=#f5f5f5;strokeColor=#1C57CD;strokeWidth=3;" vertex="1" parent="1">
          <mxGeometry x="3531.25" y="904.8000000000001" width="221.69" height="94" as="geometry" />
        </mxCell>
        <mxCell id="KEMRwMlC_l3wsv7uTXtr-55" value="&lt;span style=&quot;font-size: 23px;&quot;&gt;Транзакция&lt;/span&gt;" style="text;html=1;align=center;verticalAlign=middle;whiteSpace=wrap;rounded=1;fontSize=13;" vertex="1" parent="1">
          <mxGeometry x="3537.84" y="910.5200000000001" width="174.05" height="26.55" as="geometry" />
        </mxCell>
        <mxCell id="LR5BryFxUAawPIUA4l_Y-72" value="&lt;p style=&quot;margin: 0px 0px 0px 13px; text-indent: -13px; font-variant-numeric: normal; font-variant-east-asian: normal; font-variant-alternates: normal; font-kerning: auto; font-optical-sizing: auto; font-feature-settings: normal; font-variation-settings: normal; font-variant-position: normal; font-stretch: normal; line-height: normal; text-align: start;&quot; class=&quot;p1&quot;&gt;&lt;span style=&quot;text-align: center; text-indent: 0px;&quot;&gt;&lt;font style=&quot;font-size: 14px;&quot; face=&quot;Times New Roman&quot;&gt;[Транзакция.ID]&lt;/font&gt;&lt;/span&gt;&lt;br&gt;&lt;/p&gt;" style="rounded=1;whiteSpace=wrap;html=1;fillColor=#B8B8B8;strokeColor=#FFD966;" parent="1" vertex="1">
          <mxGeometry x="3541.25" y="939.8000000000001" width="104" height="21" as="geometry" />
        </mxCell>
        <mxCell id="LR5BryFxUAawPIUA4l_Y-73" value="&lt;p style=&quot;margin: 0px 0px 0px 13px; text-indent: -13px; font-variant-numeric: normal; font-variant-east-asian: normal; font-variant-alternates: normal; font-kerning: auto; font-optical-sizing: auto; font-feature-settings: normal; font-variation-settings: normal; font-variant-position: normal; font-stretch: normal; line-height: normal; text-align: start;&quot; class=&quot;p1&quot;&gt;&lt;span style=&quot;text-align: center; text-indent: 0px;&quot;&gt;&lt;font style=&quot;font-size: 14px;&quot; face=&quot;Times New Roman&quot;&gt;[Транзакция.Статус]&lt;/font&gt;&lt;/span&gt;&lt;br&gt;&lt;/p&gt;" style="rounded=1;whiteSpace=wrap;html=1;fillColor=#B8B8B8;strokeColor=#FFD966;" parent="1" vertex="1">
          <mxGeometry x="3541.25" y="969.8000000000001" width="125" height="21" as="geometry" />
        </mxCell>
        <mxCell id="KEMRwMlC_l3wsv7uTXtr-56" value="" style="rounded=1;whiteSpace=wrap;html=1;arcSize=5;fillColor=#f5f5f5;strokeColor=#1C57CD;strokeWidth=3;" vertex="1" parent="1">
          <mxGeometry x="3250" y="904.8000000000001" width="230" height="98.28" as="geometry" />
        </mxCell>
        <mxCell id="KEMRwMlC_l3wsv7uTXtr-57" value="&lt;span style=&quot;font-size: 23px;&quot;&gt;Торговая площадка&lt;/span&gt;" style="text;html=1;align=center;verticalAlign=middle;whiteSpace=wrap;rounded=1;fontSize=13;" vertex="1" parent="1">
          <mxGeometry x="3256.59" y="910.5200000000001" width="213.41" height="26.55" as="geometry" />
        </mxCell>
        <mxCell id="LR5BryFxUAawPIUA4l_Y-34" value="&lt;p style=&quot;margin: 0px 0px 0px 13px; text-indent: -13px; font-variant-numeric: normal; font-variant-east-asian: normal; font-variant-alternates: normal; font-kerning: auto; font-optical-sizing: auto; font-feature-settings: normal; font-variation-settings: normal; font-variant-position: normal; font-stretch: normal; font-size: 14px; line-height: normal; color: rgb(14, 14, 14); text-align: start;&quot; class=&quot;p1&quot;&gt;&lt;font face=&quot;Times New Roman&quot;&gt;Торговая площадка.ID&lt;/font&gt;&lt;/p&gt;" style="rounded=1;whiteSpace=wrap;html=1;fillColor=#b1ddf0;strokeColor=#10739e;" parent="1" vertex="1">
          <mxGeometry x="3258" y="942.83" width="144.5" height="21" as="geometry" />
        </mxCell>
        <mxCell id="LR5BryFxUAawPIUA4l_Y-35" value="&lt;p style=&quot;margin: 0px 0px 0px 13px; text-indent: -13px; font-variant-numeric: normal; font-variant-east-asian: normal; font-variant-alternates: normal; font-kerning: auto; font-optical-sizing: auto; font-feature-settings: normal; font-variation-settings: normal; font-variant-position: normal; font-stretch: normal; font-size: 14px; line-height: normal; color: rgb(14, 14, 14); text-align: start;&quot; class=&quot;p1&quot;&gt;&lt;font face=&quot;Times New Roman&quot;&gt;Торговая площадка.Наименование&lt;/font&gt;&lt;/p&gt;" style="rounded=1;whiteSpace=wrap;html=1;fillColor=#b1ddf0;strokeColor=#10739e;" parent="1" vertex="1">
          <mxGeometry x="3258" y="972.83" width="214" height="21" as="geometry" />
        </mxCell>
        <mxCell id="LR5BryFxUAawPIUA4l_Y-37" value="&lt;p style=&quot;margin: 0px 0px 0px 13px; text-indent: -13px; font-variant-numeric: normal; font-variant-east-asian: normal; font-variant-alternates: normal; font-kerning: auto; font-optical-sizing: auto; font-feature-settings: normal; font-variation-settings: normal; font-variant-position: normal; font-stretch: normal; font-size: 14px; line-height: normal; color: rgb(14, 14, 14); text-align: start;&quot; class=&quot;p1&quot;&gt;&lt;font face=&quot;Times New Roman&quot;&gt;Услуга.ID&lt;/font&gt;&lt;/p&gt;" style="rounded=1;whiteSpace=wrap;html=1;fillColor=#b1ddf0;strokeColor=#10739e;" parent="1" vertex="1">
          <mxGeometry x="3568.86" y="590.33" width="87" height="21" as="geometry" />
        </mxCell>
        <mxCell id="LR5BryFxUAawPIUA4l_Y-38" value="&lt;p style=&quot;margin: 0px 0px 0px 13px; text-indent: -13px; font-variant-numeric: normal; font-variant-east-asian: normal; font-variant-alternates: normal; font-kerning: auto; font-optical-sizing: auto; font-feature-settings: normal; font-variation-settings: normal; font-variant-position: normal; font-stretch: normal; font-size: 14px; line-height: normal; color: rgb(14, 14, 14); text-align: start;&quot; class=&quot;p1&quot;&gt;&lt;font face=&quot;Times New Roman&quot;&gt;Услуга.Название&lt;/font&gt;&lt;/p&gt;" style="rounded=1;whiteSpace=wrap;html=1;fillColor=#b1ddf0;strokeColor=#10739e;" parent="1" vertex="1">
          <mxGeometry x="3568.86" y="643.33" width="110" height="21" as="geometry" />
        </mxCell>
        <mxCell id="LR5BryFxUAawPIUA4l_Y-39" value="&lt;p style=&quot;margin: 0px 0px 0px 13px; text-indent: -13px; font-variant-numeric: normal; font-variant-east-asian: normal; font-variant-alternates: normal; font-kerning: auto; font-optical-sizing: auto; font-feature-settings: normal; font-variation-settings: normal; font-variant-position: normal; font-stretch: normal; font-size: 14px; line-height: normal; color: rgb(14, 14, 14); text-align: start;&quot; class=&quot;p1&quot;&gt;&lt;font face=&quot;Times New Roman&quot;&gt;Услуга. Описание&lt;/font&gt;&lt;/p&gt;" style="rounded=1;whiteSpace=wrap;html=1;fillColor=#b1ddf0;strokeColor=#10739e;" parent="1" vertex="1">
          <mxGeometry x="3568.86" y="616.33" width="112" height="21" as="geometry" />
        </mxCell>
        <mxCell id="LR5BryFxUAawPIUA4l_Y-40" value="&lt;p style=&quot;margin: 0px 0px 0px 13px; text-indent: -13px; font-variant-numeric: normal; font-variant-east-asian: normal; font-variant-alternates: normal; font-kerning: auto; font-optical-sizing: auto; font-feature-settings: normal; font-variation-settings: normal; font-variant-position: normal; font-stretch: normal; font-size: 14px; line-height: normal; color: rgb(14, 14, 14); text-align: start;&quot; class=&quot;p1&quot;&gt;&lt;font face=&quot;Times New Roman&quot;&gt;Товар.ID&lt;/font&gt;&lt;/p&gt;" style="rounded=1;whiteSpace=wrap;html=1;fillColor=#b1ddf0;strokeColor=#10739e;" parent="1" vertex="1">
          <mxGeometry x="3576.5" y="796.08" width="78" height="21" as="geometry" />
        </mxCell>
        <mxCell id="LR5BryFxUAawPIUA4l_Y-41" value="&lt;p style=&quot;margin: 0px 0px 0px 13px; text-indent: -13px; font-variant-numeric: normal; font-variant-east-asian: normal; font-variant-alternates: normal; font-kerning: auto; font-optical-sizing: auto; font-feature-settings: normal; font-variation-settings: normal; font-variant-position: normal; font-stretch: normal; font-size: 14px; line-height: normal; color: rgb(14, 14, 14); text-align: start;&quot; class=&quot;p1&quot;&gt;&lt;font face=&quot;Times New Roman&quot;&gt;Товар.Название&lt;/font&gt;&lt;/p&gt;" style="rounded=1;whiteSpace=wrap;html=1;fillColor=#b1ddf0;strokeColor=#10739e;" parent="1" vertex="1">
          <mxGeometry x="3576.5" y="767.08" width="111" height="21" as="geometry" />
        </mxCell>
        <mxCell id="LR5BryFxUAawPIUA4l_Y-42" value="&lt;p style=&quot;margin: 0px 0px 0px 13px; text-indent: -13px; font-variant-numeric: normal; font-variant-east-asian: normal; font-variant-alternates: normal; font-kerning: auto; font-optical-sizing: auto; font-feature-settings: normal; font-variation-settings: normal; font-variant-position: normal; font-stretch: normal; font-size: 14px; line-height: normal; color: rgb(14, 14, 14); text-align: start;&quot; class=&quot;p1&quot;&gt;&lt;font face=&quot;Times New Roman&quot;&gt;Товар.Описание&lt;/font&gt;&lt;/p&gt;" style="rounded=1;whiteSpace=wrap;html=1;fillColor=#b1ddf0;strokeColor=#10739e;" parent="1" vertex="1">
          <mxGeometry x="3576.5" y="737.63" width="107" height="21" as="geometry" />
        </mxCell>
        <mxCell id="KEMRwMlC_l3wsv7uTXtr-26" value="" style="rounded=1;whiteSpace=wrap;html=1;arcSize=5;fillColor=#f5f5f5;strokeColor=#1C57CD;strokeWidth=3;" vertex="1" parent="1">
          <mxGeometry x="2390" y="585" width="330" height="392.45" as="geometry" />
        </mxCell>
        <mxCell id="KEMRwMlC_l3wsv7uTXtr-27" value="&lt;span style=&quot;font-size: 23px;&quot;&gt;Платежи&lt;/span&gt;" style="text;html=1;align=center;verticalAlign=middle;whiteSpace=wrap;rounded=1;fontSize=13;" vertex="1" parent="1">
          <mxGeometry x="2400" y="587.45" width="120" height="30" as="geometry" />
        </mxCell>
        <mxCell id="LR5BryFxUAawPIUA4l_Y-189" value="" style="rounded=1;whiteSpace=wrap;html=1;fillColor=#1C57CD;strokeColor=none;arcSize=0;" parent="1" vertex="1">
          <mxGeometry x="2400" y="632" width="309" height="39" as="geometry" />
        </mxCell>
        <mxCell id="LR5BryFxUAawPIUA4l_Y-300" value="" style="group" parent="1" vertex="1" connectable="0">
          <mxGeometry x="2393" y="680.41" width="316" height="39" as="geometry" />
        </mxCell>
        <mxCell id="LR5BryFxUAawPIUA4l_Y-301" value="" style="rounded=1;whiteSpace=wrap;html=1;fillColor=#1C57CD;strokeColor=none;" parent="LR5BryFxUAawPIUA4l_Y-300" vertex="1">
          <mxGeometry x="7" width="309" height="39" as="geometry" />
        </mxCell>
        <mxCell id="LR5BryFxUAawPIUA4l_Y-302" value="" style="sketch=0;outlineConnect=0;fontColor=#232F3E;gradientColor=none;fillColor=#FFFFFF;strokeColor=none;dashed=0;verticalLabelPosition=bottom;verticalAlign=top;align=center;html=1;fontSize=12;fontStyle=0;aspect=fixed;pointerEvents=1;shape=mxgraph.aws4.gear;rounded=1;" parent="LR5BryFxUAawPIUA4l_Y-300" vertex="1">
          <mxGeometry x="287" y="11" width="17" height="17" as="geometry" />
        </mxCell>
        <mxCell id="LR5BryFxUAawPIUA4l_Y-303" value="Авторизация платёжной операции" style="text;html=1;align=center;verticalAlign=middle;whiteSpace=wrap;rounded=1;fontSize=13;fontColor=#FFFFFF;strokeColor=none;" parent="LR5BryFxUAawPIUA4l_Y-300" vertex="1">
          <mxGeometry y="4.5" width="243" height="30" as="geometry" />
        </mxCell>
        <mxCell id="LR5BryFxUAawPIUA4l_Y-284" value="" style="group" parent="1" vertex="1" connectable="0">
          <mxGeometry x="2400" y="729.41" width="309" height="39" as="geometry" />
        </mxCell>
        <mxCell id="LR5BryFxUAawPIUA4l_Y-285" value="" style="rounded=1;whiteSpace=wrap;html=1;fillColor=#1C57CD;strokeColor=none;" parent="LR5BryFxUAawPIUA4l_Y-284" vertex="1">
          <mxGeometry width="309" height="39" as="geometry" />
        </mxCell>
        <mxCell id="LR5BryFxUAawPIUA4l_Y-286" value="" style="sketch=0;outlineConnect=0;fontColor=#232F3E;gradientColor=none;fillColor=#FFFFFF;strokeColor=none;dashed=0;verticalLabelPosition=bottom;verticalAlign=top;align=center;html=1;fontSize=12;fontStyle=0;aspect=fixed;pointerEvents=1;shape=mxgraph.aws4.gear;rounded=1;" parent="LR5BryFxUAawPIUA4l_Y-284" vertex="1">
          <mxGeometry x="280" y="11" width="17" height="17" as="geometry" />
        </mxCell>
        <mxCell id="LR5BryFxUAawPIUA4l_Y-287" value="Предоставить статус операции" style="text;html=1;align=center;verticalAlign=middle;whiteSpace=wrap;rounded=1;fontSize=13;fontColor=#FFFFFF;strokeColor=none;" parent="LR5BryFxUAawPIUA4l_Y-284" vertex="1">
          <mxGeometry y="4.5" width="207" height="30" as="geometry" />
        </mxCell>
        <mxCell id="LR5BryFxUAawPIUA4l_Y-288" value="" style="group" parent="1" vertex="1" connectable="0">
          <mxGeometry x="2400" y="777.4100000000001" width="309" height="39" as="geometry" />
        </mxCell>
        <mxCell id="LR5BryFxUAawPIUA4l_Y-289" value="" style="rounded=1;whiteSpace=wrap;html=1;fillColor=#1C57CD;strokeColor=none;" parent="LR5BryFxUAawPIUA4l_Y-288" vertex="1">
          <mxGeometry width="309" height="39" as="geometry" />
        </mxCell>
        <mxCell id="LR5BryFxUAawPIUA4l_Y-290" value="" style="sketch=0;outlineConnect=0;fontColor=#232F3E;gradientColor=none;fillColor=#FFFFFF;strokeColor=none;dashed=0;verticalLabelPosition=bottom;verticalAlign=top;align=center;html=1;fontSize=12;fontStyle=0;aspect=fixed;pointerEvents=1;shape=mxgraph.aws4.gear;rounded=1;" parent="LR5BryFxUAawPIUA4l_Y-288" vertex="1">
          <mxGeometry x="280" y="11" width="17" height="17" as="geometry" />
        </mxCell>
        <mxCell id="LR5BryFxUAawPIUA4l_Y-291" value="Запросить статус операции" style="text;html=1;align=center;verticalAlign=middle;whiteSpace=wrap;rounded=1;fontSize=13;fontColor=#FFFFFF;strokeColor=none;" parent="LR5BryFxUAawPIUA4l_Y-288" vertex="1">
          <mxGeometry x="3" y="6" width="179" height="30" as="geometry" />
        </mxCell>
        <mxCell id="LR5BryFxUAawPIUA4l_Y-292" value="" style="group" parent="1" vertex="1" connectable="0">
          <mxGeometry x="2400" y="824.4100000000001" width="309" height="39" as="geometry" />
        </mxCell>
        <mxCell id="LR5BryFxUAawPIUA4l_Y-293" value="" style="rounded=1;whiteSpace=wrap;html=1;fillColor=#1C57CD;strokeColor=none;" parent="LR5BryFxUAawPIUA4l_Y-292" vertex="1">
          <mxGeometry width="309" height="39" as="geometry" />
        </mxCell>
        <mxCell id="LR5BryFxUAawPIUA4l_Y-294" value="" style="sketch=0;outlineConnect=0;fontColor=#232F3E;gradientColor=none;fillColor=#FFFFFF;strokeColor=none;dashed=0;verticalLabelPosition=bottom;verticalAlign=top;align=center;html=1;fontSize=12;fontStyle=0;aspect=fixed;pointerEvents=1;shape=mxgraph.aws4.gear;rounded=1;" parent="LR5BryFxUAawPIUA4l_Y-292" vertex="1">
          <mxGeometry x="280" y="11" width="17" height="17" as="geometry" />
        </mxCell>
        <mxCell id="LR5BryFxUAawPIUA4l_Y-295" value="Инициировать отмену транзакции" style="text;html=1;align=center;verticalAlign=middle;whiteSpace=wrap;rounded=1;fontSize=13;fontColor=#FFFFFF;strokeColor=none;" parent="LR5BryFxUAawPIUA4l_Y-292" vertex="1">
          <mxGeometry x="2" y="4" width="223" height="30" as="geometry" />
        </mxCell>
        <mxCell id="LR5BryFxUAawPIUA4l_Y-308" value="" style="group" parent="1" vertex="1" connectable="0">
          <mxGeometry x="2400" y="867.45" width="309" height="39" as="geometry" />
        </mxCell>
        <mxCell id="LR5BryFxUAawPIUA4l_Y-309" value="" style="rounded=1;whiteSpace=wrap;html=1;fillColor=#1C57CD;strokeColor=none;" parent="LR5BryFxUAawPIUA4l_Y-308" vertex="1">
          <mxGeometry width="309" height="39" as="geometry" />
        </mxCell>
        <mxCell id="LR5BryFxUAawPIUA4l_Y-310" value="" style="sketch=0;outlineConnect=0;fontColor=#232F3E;gradientColor=none;fillColor=#FFFFFF;strokeColor=none;dashed=0;verticalLabelPosition=bottom;verticalAlign=top;align=center;html=1;fontSize=12;fontStyle=0;aspect=fixed;pointerEvents=1;shape=mxgraph.aws4.gear;rounded=1;" parent="LR5BryFxUAawPIUA4l_Y-308" vertex="1">
          <mxGeometry x="280" y="11" width="17" height="17" as="geometry" />
        </mxCell>
        <mxCell id="LR5BryFxUAawPIUA4l_Y-311" value="Инициировать платёжную операцию" style="text;html=1;align=center;verticalAlign=middle;whiteSpace=wrap;rounded=1;fontSize=13;fontColor=#FFFFFF;strokeColor=none;" parent="LR5BryFxUAawPIUA4l_Y-308" vertex="1">
          <mxGeometry y="4.5" width="243" height="30" as="geometry" />
        </mxCell>
        <mxCell id="LR5BryFxUAawPIUA4l_Y-304" value="" style="group" parent="1" vertex="1" connectable="0">
          <mxGeometry x="2400" y="917.45" width="309" height="39" as="geometry" />
        </mxCell>
        <mxCell id="LR5BryFxUAawPIUA4l_Y-305" value="" style="rounded=1;whiteSpace=wrap;html=1;fillColor=#1C57CD;strokeColor=none;" parent="LR5BryFxUAawPIUA4l_Y-304" vertex="1">
          <mxGeometry width="309" height="39" as="geometry" />
        </mxCell>
        <mxCell id="LR5BryFxUAawPIUA4l_Y-306" value="" style="sketch=0;outlineConnect=0;fontColor=#232F3E;gradientColor=none;fillColor=#FFFFFF;strokeColor=none;dashed=0;verticalLabelPosition=bottom;verticalAlign=top;align=center;html=1;fontSize=12;fontStyle=0;aspect=fixed;pointerEvents=1;shape=mxgraph.aws4.gear;rounded=1;" parent="LR5BryFxUAawPIUA4l_Y-304" vertex="1">
          <mxGeometry x="280" y="11" width="17" height="17" as="geometry" />
        </mxCell>
        <mxCell id="LR5BryFxUAawPIUA4l_Y-307" value="Учёт платёжной операции" style="text;html=1;align=center;verticalAlign=middle;whiteSpace=wrap;rounded=1;fontSize=13;fontColor=#FFFFFF;strokeColor=none;" parent="LR5BryFxUAawPIUA4l_Y-304" vertex="1">
          <mxGeometry x="5" y="4.5" width="173" height="30" as="geometry" />
        </mxCell>
        <mxCell id="LR5BryFxUAawPIUA4l_Y-191" value="Определить способ оплаты" style="text;html=1;align=center;verticalAlign=middle;whiteSpace=wrap;rounded=1;fontSize=13;fontColor=#FFFFFF;strokeColor=none;" parent="1" vertex="1">
          <mxGeometry x="2404" y="633.55" width="173" height="30" as="geometry" />
        </mxCell>
        <mxCell id="KEMRwMlC_l3wsv7uTXtr-60" style="edgeStyle=orthogonalEdgeStyle;rounded=0;orthogonalLoop=1;jettySize=auto;html=1;exitX=0.5;exitY=0;exitDx=0;exitDy=0;entryX=0.084;entryY=0.983;entryDx=0;entryDy=0;entryPerimeter=0;" edge="1" parent="1" source="KEMRwMlC_l3wsv7uTXtr-44" target="LR5BryFxUAawPIUA4l_Y-16">
          <mxGeometry relative="1" as="geometry" />
        </mxCell>
        <mxCell id="KEMRwMlC_l3wsv7uTXtr-61" value="1" style="ellipse;whiteSpace=wrap;html=1;aspect=fixed;rounded=1;fillColor=#FF77BF;" vertex="1" parent="1">
          <mxGeometry x="2545.5" y="157.4000000000001" width="23" height="23" as="geometry" />
        </mxCell>
        <mxCell id="KEMRwMlC_l3wsv7uTXtr-63" style="edgeStyle=orthogonalEdgeStyle;rounded=0;orthogonalLoop=1;jettySize=auto;html=1;exitX=0.25;exitY=1;exitDx=0;exitDy=0;entryX=0.597;entryY=0.067;entryDx=0;entryDy=0;entryPerimeter=0;" edge="1" parent="1" source="KEMRwMlC_l3wsv7uTXtr-44" target="KEMRwMlC_l3wsv7uTXtr-27">
          <mxGeometry relative="1" as="geometry" />
        </mxCell>
        <mxCell id="KEMRwMlC_l3wsv7uTXtr-62" value="1" style="ellipse;whiteSpace=wrap;html=1;aspect=fixed;rounded=1;fillColor=#FF77BF;" vertex="1" parent="1">
          <mxGeometry x="2458" y="544.5500000000001" width="23" height="23" as="geometry" />
        </mxCell>
        <mxCell id="KEMRwMlC_l3wsv7uTXtr-65" style="edgeStyle=orthogonalEdgeStyle;rounded=0;orthogonalLoop=1;jettySize=auto;html=1;entryX=1;entryY=0.25;entryDx=0;entryDy=0;" edge="1" parent="1" source="KEMRwMlC_l3wsv7uTXtr-64" target="KEMRwMlC_l3wsv7uTXtr-26">
          <mxGeometry relative="1" as="geometry">
            <Array as="points">
              <mxPoint x="2920" y="683" />
            </Array>
          </mxGeometry>
        </mxCell>
        <mxCell id="KEMRwMlC_l3wsv7uTXtr-68" style="edgeStyle=orthogonalEdgeStyle;rounded=0;orthogonalLoop=1;jettySize=auto;html=1;exitX=1;exitY=0.5;exitDx=0;exitDy=0;" edge="1" parent="1" source="KEMRwMlC_l3wsv7uTXtr-66">
          <mxGeometry relative="1" as="geometry">
            <mxPoint x="2970" y="-220" as="targetPoint" />
          </mxGeometry>
        </mxCell>
        <mxCell id="KEMRwMlC_l3wsv7uTXtr-66" value="3" style="ellipse;whiteSpace=wrap;html=1;aspect=fixed;rounded=1;fillColor=#FF77BF;" vertex="1" parent="1">
          <mxGeometry x="2709" y="714.6300000000001" width="23" height="23" as="geometry" />
        </mxCell>
        <mxCell id="KEMRwMlC_l3wsv7uTXtr-67" value="4" style="ellipse;whiteSpace=wrap;html=1;aspect=fixed;rounded=1;fillColor=#FF77BF;" vertex="1" parent="1">
          <mxGeometry x="2709" y="767.0800000000002" width="23" height="23" as="geometry" />
        </mxCell>
        <mxCell id="KEMRwMlC_l3wsv7uTXtr-69" style="edgeStyle=orthogonalEdgeStyle;rounded=0;orthogonalLoop=1;jettySize=auto;html=1;exitX=1;exitY=0.5;exitDx=0;exitDy=0;entryX=0.331;entryY=1.004;entryDx=0;entryDy=0;entryPerimeter=0;" edge="1" parent="1" source="KEMRwMlC_l3wsv7uTXtr-67" target="LR5BryFxUAawPIUA4l_Y-16">
          <mxGeometry relative="1" as="geometry" />
        </mxCell>
        <mxCell id="KEMRwMlC_l3wsv7uTXtr-71" style="edgeStyle=orthogonalEdgeStyle;rounded=0;orthogonalLoop=1;jettySize=auto;html=1;exitX=0.5;exitY=1;exitDx=0;exitDy=0;entryX=1.003;entryY=0.593;entryDx=0;entryDy=0;entryPerimeter=0;" edge="1" parent="1" source="KEMRwMlC_l3wsv7uTXtr-70" target="KEMRwMlC_l3wsv7uTXtr-26">
          <mxGeometry relative="1" as="geometry" />
        </mxCell>
      </root>
    </mxGraphModel>
  </diagram>
</mxfile>
